<?xml version="1.0" encoding="UTF-8"?>
<svg xmlns="http://www.w3.org/2000/svg" width="110" height="110" viewBox="0 0 110 110" fill="none">
  <path d="M99.7767 46.2949C99.2649 48.0375 98.4389 49.5521 96.794 50.5013C96.6568 50.5804 96.5963 50.8898 96.5963 51.0922C96.6126 54.5821 94.4093 57.4019 91.3592 57.7741C87.874 58.1999 84.8449 56.0152 84.0701 52.5184C84.0399 52.3811 83.984 52.2485 83.9072 52.0182C82.0623 53.0814 80.2546 54.1005 78.4864 55.18C78.2793 55.3056 78.1932 55.7709 78.1909 56.078C78.1723 60.6055 78.1793 74.4392 78.1793 78.9667C78.1793 79.1994 78.1793 79.432 78.1746 79.6623C78.163 80.2579 77.8163 80.6093 77.2673 80.6302C76.667 80.6511 76.2878 80.2835 76.2762 79.6577C76.2576 78.6131 76.2901 68.2622 76.2529 67.2176C76.2436 66.971 76.118 66.6197 75.9295 66.508C74.166 65.4494 72.3792 64.435 70.5203 63.3625C70.4272 63.7627 70.3597 64.0954 70.2713 64.4234C69.457 67.4502 66.3464 69.6233 63.4522 69.1928C60.067 68.6903 57.7405 65.9124 57.8336 62.5366C57.8405 62.2667 57.6474 61.8875 57.4264 61.7339C54.6997 59.8261 53.8644 56.3991 55.4395 53.5956C56.9774 50.8549 60.6975 49.7056 63.5313 51.2737C63.7221 51.3807 64.0966 51.3691 64.2781 51.2504C67.5492 49.1077 71.1065 50.4059 72.7119 52.537C74.7546 55.2498 74.4056 58.9025 71.872 61.3686C71.7719 61.4663 71.6789 61.5734 71.5416 61.7199C73.1027 62.618 74.622 63.4905 76.2668 64.4374V63.3578C76.2668 57.2646 76.2668 51.169 76.2668 45.0758C76.2668 44.8733 76.2715 44.6686 76.2668 44.4662C76.2529 43.7845 76.5228 43.3146 77.2603 43.3308C77.9559 43.3471 78.1793 43.8101 78.1769 44.4522C78.17 46.9486 78.1746 49.4427 78.1746 51.9391C78.1746 52.2578 78.1746 52.5743 78.1746 53.0814C79.7962 52.1508 81.3085 51.283 82.9068 50.364C81.7017 49.2798 80.8757 48.0305 80.5361 46.4787C80.0103 44.0614 80.9665 41.3882 82.9557 40.0062C85.1706 38.466 87.4948 38.3892 89.8214 39.7317C90.3379 40.0295 90.6799 40.0644 91.222 39.7991C94.3628 38.2496 98.2086 39.855 99.4231 43.1773C99.5301 43.4681 99.6534 43.7519 99.7697 44.0404V46.3042L99.7767 46.2949ZM66.4116 58.7303C66.3208 58.0393 66.2417 57.5089 66.1812 56.9761C66.1091 56.3409 66.2115 55.7663 66.9769 55.6779C67.7005 55.5941 68.0052 56.0269 68.0937 56.7085C68.217 57.6554 68.3612 58.6024 68.5404 59.54C68.7079 60.4124 69.4687 60.7032 70.1922 60.21C72.2559 58.8024 72.7375 55.7314 71.2089 53.7352C69.7199 51.7902 66.8815 51.5157 64.9621 53.2071C64.2525 53.8329 63.7197 53.8655 63.0055 53.2676C62.019 52.4416 60.8301 52.3416 59.6273 52.6464C57.8731 53.0884 56.7424 54.5169 56.6028 56.3619C56.4748 58.0649 57.4567 59.6982 59.0969 60.3705C59.8507 60.68 60.0671 61.1057 59.9344 61.9177C59.8204 62.6133 59.8321 63.3834 60.0112 64.0628C60.5928 66.2567 62.6007 67.5131 64.8597 67.2036C66.835 66.9338 68.5008 64.9725 68.5543 62.8506C68.5752 62.0387 67.9494 61.578 67.17 61.8665C66.2208 62.2155 65.2948 62.6366 64.3363 62.9647C63.7988 63.1508 63.2637 63.0391 63.0474 62.4249C62.838 61.8339 63.1055 61.4059 63.6616 61.1662C64.2013 60.9336 64.7504 60.7265 65.4577 60.4427C64.7341 60.0192 64.1688 59.6819 63.5964 59.3562C63.0008 59.0188 62.731 58.5326 63.0985 57.9184C63.4429 57.346 63.978 57.3367 64.5364 57.6624C65.1064 57.9951 65.6833 58.3139 66.4092 58.7257L66.4116 58.7303ZM88.0462 47.3697C88.7302 46.9812 89.2816 46.6741 89.8283 46.3577C90.396 46.0296 90.9753 45.9389 91.3476 46.5671C91.7431 47.2325 91.3918 47.7071 90.7752 48.0514C90.2192 48.3632 89.6818 48.7075 89.0234 49.1054C89.7144 49.3822 90.2239 49.5846 90.7334 49.7894C91.3383 50.0337 91.6337 50.478 91.3848 51.0969C91.1335 51.7227 90.5961 51.8065 90.0052 51.5785C89.1141 51.2318 88.2323 50.8666 87.3389 50.5292C86.4688 50.2012 85.8406 50.6781 85.9058 51.6018C86.0896 54.2215 88.3696 56.1525 90.9521 55.878C93.2903 55.629 94.9491 53.3746 94.5443 50.8107C94.3837 49.7894 94.6327 49.2985 95.5889 48.889C97.0802 48.2492 97.8015 46.9603 97.8573 45.3619C97.9155 43.6635 97.1081 42.3932 95.6215 41.6255C94.2023 40.8949 92.7435 40.9019 91.4476 41.914C90.7171 42.4863 90.1936 42.4886 89.4887 41.8605C87.5809 40.1644 84.7657 40.4343 83.2372 42.3839C81.7226 44.3173 82.174 47.3744 84.1865 48.8029C84.9961 49.3776 85.7522 49.0867 85.9337 48.0933C86.1059 47.1534 86.2361 46.2065 86.3688 45.2596C86.4595 44.6081 86.8178 44.2266 87.4692 44.3057C88.0811 44.3801 88.344 44.8245 88.2765 45.4387C88.2114 46.032 88.1369 46.6252 88.0485 47.3697H88.0462Z" fill="#F37021"></path>
  <path d="M99.7729 93.0368C99.3099 93.2089 98.8446 93.5346 98.3816 93.5346C69.5928 93.5579 40.8017 93.5556 12.0106 93.5556C11.8663 93.5556 11.7197 93.5602 11.5755 93.5532C10.9962 93.523 10.6379 93.2252 10.6216 92.6412C10.6053 92.0131 10.9706 91.6687 11.5895 91.6571C12.7202 91.6385 13.8509 91.6525 15.056 91.6525C15.5051 89.5469 16.6427 87.9393 18.5901 87.0017C20.542 86.0617 22.508 86.1292 24.4227 87.111C27.8404 83.8469 30.2321 83.5956 34.0803 86.078C36.9745 83.6421 41.1879 83.8887 43.6843 87.118C45.5711 86.185 47.5324 86.0362 49.4914 86.9575C51.462 87.8834 52.6392 89.4608 53.1045 91.6478C54.2841 91.6478 55.4381 91.6664 56.5897 91.6269C56.7665 91.6199 57.0271 91.3802 57.0899 91.1918C58.53 86.9295 62.2013 85.2917 66.4008 87.111C67.5594 85.6383 69.0391 84.6705 70.9725 84.489C72.8663 84.3122 74.5228 84.8496 75.9931 86.1525C77.4449 84.8822 79.1154 84.3005 81.0348 84.4913C82.9356 84.6798 84.4199 85.5918 85.5925 87.1273C87.1001 86.3782 88.6636 86.106 90.3038 86.5643C92.6397 87.218 94.1891 88.7001 94.8499 91.0336C94.9941 91.5454 95.2035 91.6711 95.6782 91.6548C96.5483 91.6269 97.4254 91.5873 98.2885 91.6687C98.7934 91.7176 99.2797 91.9898 99.7729 92.162V93.0321V93.0368ZM92.9514 91.6176C92.4815 88.8862 88.9009 87.2599 86.2975 89.0188C85.1249 89.8122 84.8853 89.7563 84.1501 88.5209C82.6332 85.9757 79.041 85.6406 77.0913 87.8602C76.1816 88.8955 75.828 88.8932 74.9043 87.8485C72.978 85.6686 69.4067 85.978 67.8874 88.4558C67.0662 89.7935 66.9591 89.8075 65.6214 88.963C62.6829 87.1064 59.3257 89.2003 59.0791 91.6199H92.9514V91.6176ZM51.0432 91.6059C50.9827 91.3616 50.9571 91.1639 50.885 90.9847C49.8566 88.4069 46.6064 87.4879 44.2636 89.1049C43.3446 89.74 42.8514 89.7121 42.4279 88.8373C41.0111 85.9105 36.8442 85.5615 34.9504 88.0998C34.3943 88.8443 33.8336 88.8001 33.2241 88.1231C30.8859 85.5266 27.545 85.8407 25.7652 88.8234C25.2836 89.6307 24.8345 89.733 24.0668 89.2142C23.8504 89.07 23.6387 88.9118 23.4107 88.7908C20.4839 87.2297 17.3872 89.3236 17.1616 91.6036H51.0408L51.0432 91.6059Z" fill="#F37021"></path>
  <path d="M34.1382 53.07C35.7901 52.1184 37.2884 51.2576 39.0752 50.2292C38.7239 50.0152 38.4377 49.9082 38.24 49.7127C36.3741 47.8515 35.8436 44.8875 36.9208 42.4632C37.984 40.0715 40.2873 38.6104 43.0001 38.8501C44.0261 38.9408 45.0033 39.5085 46.0153 39.8226C46.3015 39.911 46.683 39.9738 46.9343 39.8598C49.9565 38.4592 53.3626 39.4457 54.9516 42.2166C56.5476 45.0038 55.7078 48.4215 52.981 50.3526C52.7693 50.5014 52.5576 50.8435 52.5669 51.0877C52.7111 54.9033 49.9635 57.4625 47.2298 57.765C43.6608 58.1581 40.7922 55.9782 39.9965 52.3418C39.9802 52.2627 39.9244 52.1905 39.843 52.0253C38.0306 53.0723 36.2228 54.089 34.4547 55.1685C34.2453 55.2965 34.1545 55.7571 34.1522 56.0666C34.1336 60.5638 34.1382 74.3673 34.1382 78.8645C34.1382 79.1251 34.1383 79.3856 34.1313 79.6485C34.1196 80.2395 33.7846 80.6001 33.2309 80.6234C32.6237 80.649 32.2468 80.2674 32.2282 79.6555C32.1979 78.6109 32.2421 68.2601 32.1979 67.2178C32.1863 66.9525 32.0234 66.5826 31.814 66.457C30.0784 65.4123 28.3149 64.4119 26.5048 63.3673C26.4187 63.6698 26.3396 63.9071 26.2838 64.1514C25.6277 67.0502 23.0196 69.207 20.1207 69.2395C17.3219 69.2721 14.7674 67.2852 14.0531 64.4282C13.86 63.6581 14.1206 62.7182 13.7832 62.0575C13.4435 61.3944 12.5292 61.0547 12.0127 60.4498C10.1422 58.2559 10.1608 55.0196 11.9848 52.7536C13.7181 50.5992 16.845 49.9384 19.3809 51.2343C19.7741 51.4344 20.0137 51.4204 20.379 51.1924C23.1802 49.4475 26.6793 49.985 28.6034 52.4302C30.6228 54.9964 30.4111 58.791 28.1148 61.0919C27.931 61.2757 27.7239 61.4316 27.4448 61.6712C29.0547 62.5995 30.5623 63.4697 32.2188 64.4236C32.2188 63.9676 32.2188 63.6628 32.2188 63.358C32.2188 57.2368 32.2188 51.1133 32.2188 44.9922C32.2188 44.7316 32.1979 44.4664 32.2305 44.2104C32.3049 43.6497 32.619 43.3054 33.21 43.317C33.8009 43.3287 34.1127 43.6684 34.1289 44.2523C34.1452 44.8037 34.1382 45.3551 34.1382 45.9065C34.1382 48.2261 34.1382 50.5457 34.1382 53.077V53.07ZM44.966 49.0753C45.6151 49.3452 46.1061 49.5662 46.6063 49.7546C47.2344 49.9919 47.623 50.3921 47.3508 51.0761C47.0832 51.7485 46.5248 51.7973 45.9036 51.5484C45.0451 51.2041 44.1843 50.8621 43.3188 50.534C42.4347 50.199 41.8438 50.6387 41.8834 51.581C41.9927 54.1588 44.3006 56.1364 46.8924 55.8735C49.2353 55.6362 50.8941 53.3352 50.5288 50.8295C50.3334 49.4894 50.3427 49.5057 51.5362 48.9147C52.9926 48.1958 53.7395 46.9837 53.8069 45.3784C53.8791 43.6707 53.0787 42.405 51.6014 41.6303C50.1566 40.8742 48.6769 40.8951 47.3577 41.9397C46.6528 42.4981 46.1363 42.4655 45.4686 41.8723C43.5794 40.1948 40.8201 40.4042 39.273 42.2794C37.7002 44.1849 38.0608 47.214 40.0407 48.7193C40.969 49.4266 41.7554 49.1172 41.9345 47.9632C42.0718 47.0768 42.1974 46.188 42.3138 45.2993C42.3975 44.6618 42.7325 44.2384 43.3863 44.2965C44.047 44.3547 44.3053 44.8247 44.2285 45.4784C44.1587 46.0624 44.0936 46.6463 44.0121 47.3583C44.5496 47.0628 44.9544 46.8464 45.3522 46.6184C46.4527 45.9879 46.9646 45.974 47.3298 46.5649C47.7067 47.1768 47.4206 47.6514 46.2852 48.3098C45.8943 48.5355 45.5058 48.7658 44.9707 49.0799L44.966 49.0753ZM22.3868 58.7375C22.2798 57.9906 22.1914 57.4485 22.1262 56.9065C22.0518 56.2899 22.2146 55.7781 22.9103 55.6757C23.5757 55.578 23.934 55.9293 24.0317 56.5901C24.1783 57.5928 24.3295 58.5955 24.5133 59.5913C24.6506 60.3358 25.4253 60.6615 26.0511 60.2683C28.3219 58.8352 28.7569 55.3686 26.9096 53.4259C25.3136 51.7485 22.7521 51.6019 20.9513 53.184C20.2115 53.8331 19.6392 53.8889 18.9249 53.2328C18.6783 53.0048 18.3386 52.8559 18.0175 52.7349C16.0144 51.9858 13.6832 53.0072 12.8852 54.9684C12.0336 57.06 12.927 59.4727 14.9465 60.3125C15.805 60.6708 16.0912 61.1198 15.8701 62.0435C15.7329 62.6135 15.7701 63.2719 15.9004 63.8535C16.3936 66.0824 18.4014 67.4597 20.6931 67.2108C22.7567 66.9874 24.5156 64.968 24.5249 62.8066C24.5296 62.0179 23.8851 61.5805 23.1034 61.8713C22.1821 62.2157 21.2817 62.6158 20.3557 62.9462C19.8183 63.1393 19.2669 63.0602 19.0249 62.4739C18.7737 61.8667 19.0459 61.399 19.6461 61.1454C20.1859 60.9174 20.7326 60.7127 21.4283 60.4382C20.6768 60.0008 20.0789 59.6588 19.4856 59.3098C18.9179 58.9748 18.7341 58.4769 19.0668 57.9139C19.3809 57.3787 19.8858 57.3159 20.4255 57.6207C21.0235 57.9604 21.6214 58.3001 22.3891 58.7351L22.3868 58.7375Z" fill="#F37021"></path>
  <path d="M80.8743 36.8814C79.8413 36.5394 78.792 36.2416 77.787 35.8367C77.3752 35.6716 77.096 35.6181 76.6819 35.8367C73.3991 37.5724 69.3393 36.3207 67.6455 33.0798C66.0076 29.9506 67.2709 26.1606 70.5118 24.3808C70.7654 24.2412 71.0144 23.8457 71.0283 23.5549C71.1888 20.2907 73.9458 17.6291 77.2449 17.5989C80.4323 17.5686 83.2963 20.2977 83.3823 23.499C83.3963 24.0295 83.6103 24.2435 84.0291 24.4692C86.7302 25.9279 88.0564 28.8897 87.3095 31.735C86.5395 34.6711 83.9477 36.6883 80.8766 36.8814H80.8743ZM78.1825 29.7831C78.7548 29.3317 79.1596 29.013 79.5645 28.6896C80.0972 28.2615 80.6789 28.0614 81.1581 28.6896C81.5932 29.2596 81.3303 29.7714 80.8045 30.1809C80.0484 30.7672 79.3015 31.3628 78.5594 31.9677C78.008 32.4167 78.0127 33.7149 78.5524 34.0802C81.1954 35.86 85.2133 33.9615 85.5158 30.7881C85.7368 28.4592 84.6038 26.6515 82.3819 25.8791C81.556 25.5929 81.2279 25.1486 81.4234 24.2458C81.5281 23.7619 81.435 23.2036 81.3117 22.708C80.7719 20.5583 78.5315 19.1996 76.3445 19.6556C74.2855 20.086 72.7011 22.2334 72.9873 24.2016C73.1548 25.3556 73.071 25.4929 71.9427 25.9024C69.5091 26.7888 68.276 29.3806 69.1624 31.7513C70.0465 34.1104 72.9035 35.3296 75.2766 34.392C76.0095 34.1035 76.4794 33.6917 76.2584 32.8564C76.1653 32.5028 76.0095 32.105 75.7536 31.8676C75.1393 31.2976 74.4577 30.7998 73.7876 30.2902C73.2292 29.8645 72.836 29.3875 73.2944 28.6826C73.6317 28.1661 74.2715 28.208 74.9649 28.7477C75.3604 29.0572 75.7536 29.3713 76.2724 29.7807C76.2724 28.7873 76.277 28.0079 76.2724 27.2262C76.2654 26.5654 76.5888 26.1304 77.2356 26.1327C77.887 26.135 78.1941 26.5747 78.1825 27.2355C78.1685 28.0149 78.1801 28.7919 78.1801 29.7831H78.1825Z" fill="#F37021"></path>
  <path d="M36.7922 36.8533C35.8081 36.5439 34.796 36.2996 33.8515 35.8971C33.3489 35.683 33.0162 35.6365 32.516 35.9017C29.7195 37.3814 26.2436 36.5881 24.2335 34.0591C22.3932 31.7465 22.442 28.359 24.4289 26.0441C24.964 25.4206 25.6806 24.9297 26.3809 24.4853C26.7927 24.2248 26.9881 24.0107 27.0044 23.4965C27.1161 20.2626 29.9824 17.5801 33.2535 17.5987C36.4642 17.6173 39.2398 20.3092 39.3165 23.5594C39.3305 24.148 39.6469 24.2783 40.0238 24.4853C42.6947 25.9511 44.0069 28.9197 43.2531 31.7791C42.4853 34.6896 39.8563 36.7067 36.7922 36.8556V36.8533ZM34.1306 29.7573C34.7169 29.306 35.1497 28.9826 35.5731 28.6475C36.0942 28.2357 36.6503 28.1008 37.0993 28.6755C37.5437 29.2455 37.2924 29.755 36.7666 30.1668C36.0128 30.7554 35.2613 31.3487 34.5238 31.9559C33.8468 32.5143 33.9701 33.7962 34.7239 34.2034C37.2087 35.5458 40.3658 34.3057 41.2732 31.6325C42.0828 29.2524 40.8544 26.7514 38.4208 25.8999C37.6391 25.6277 37.1761 25.2857 37.3646 24.3295C37.4716 23.7874 37.3855 23.1662 37.2389 22.6218C36.6619 20.5046 34.4587 19.2041 32.2996 19.6507C30.1476 20.0974 28.633 22.2216 29.0029 24.362C29.1658 25.3113 28.6749 25.6393 27.9001 25.9092C25.3525 26.8026 24.1544 29.5595 25.2176 31.9815C26.2459 34.322 29.2426 35.3946 31.5412 34.2452C32.3904 33.8218 32.53 32.5003 31.7808 31.8931C31.0386 31.2905 30.2802 30.7065 29.531 30.1133C29.0285 29.7154 28.8494 29.2082 29.2565 28.6778C29.6706 28.1403 30.2127 28.2148 30.7176 28.587C31.1736 28.9244 31.611 29.2897 32.2136 29.7643C32.2136 28.7778 32.2019 27.9775 32.2182 27.1795C32.2298 26.5304 32.5719 26.1023 33.2279 26.1302C33.8328 26.1558 34.1376 26.5676 34.133 27.1888C34.126 27.9705 34.133 28.7522 34.133 29.7573H34.1306Z" fill="#F37021"></path>
  <path d="M33.1454 38.5083C33.7759 38.506 34.3808 39.0876 34.4087 39.7228C34.4366 40.3812 33.8131 41.0303 33.1524 41.0326C32.487 41.0326 31.8658 40.3951 31.8914 39.7297C31.9147 39.0899 32.5103 38.5106 33.1454 38.5083Z" fill="#F37021"></path>
  <path d="M78.3876 39.745C78.4016 40.4453 77.8223 41.0456 77.1452 41.0339C76.4984 41.0223 75.9401 40.4593 75.9261 39.8032C75.9098 39.1052 76.4891 38.5073 77.1755 38.5166C77.8223 38.5236 78.3783 39.0866 78.3899 39.745H78.3876Z" fill="#F37021"></path>
</svg>
