<?xml version="1.0" encoding="UTF-8"?>
<svg xmlns="http://www.w3.org/2000/svg" width="110" height="110" viewBox="0 0 110 110" fill="none">
  <path d="M68.5854 13.3503C69.0352 13.519 69.5045 13.6488 69.9284 13.8672C71.9481 14.9009 73.0381 16.5487 73.1094 18.8302C73.1484 20.039 72.8283 21.3906 73.2695 22.4221C73.7128 23.4558 74.8978 24.1716 75.7607 25.0236C77.1815 26.4249 78.5979 27.8305 80.0273 29.2254C80.9442 30.1185 81.3962 31.1803 81.3962 32.4735C81.3875 52.2973 81.3962 72.121 81.3854 91.947C81.3854 94.529 79.6316 96.2288 77.0452 96.2288C62.4525 96.2309 47.862 96.2288 33.2694 96.2288C30.6463 96.2288 28.9141 94.5204 28.9141 91.8799C28.9076 71.814 28.9055 51.7458 28.9379 31.6798C28.9379 31.1219 29.219 30.4667 29.5758 30.0233C31.468 27.6705 33.4359 25.3804 35.3454 23.0384C35.592 22.7378 35.739 22.2815 35.7606 21.888C35.8276 20.731 35.7282 19.5632 35.845 18.4128C36.1001 15.8978 37.5144 14.2867 39.9148 13.5255C40.0359 13.4866 40.144 13.4131 40.2587 13.3547C49.7002 13.3547 59.1439 13.3547 68.5854 13.3547V13.3503ZM45.4098 83.4591C45.1481 83.5088 44.9383 83.5564 44.7286 83.591C41.0393 84.1987 38.2994 82.7411 36.9608 79.2379C36.4029 77.7739 36.2234 76.1671 35.8817 74.6209C35.6633 73.6326 35.9206 72.8606 36.8678 72.5341C36.5564 71.202 36.1845 69.9347 35.9812 68.6372C35.8082 67.5387 35.326 66.2779 36.7424 65.6724C36.4678 64.4463 36.1477 63.3304 35.9834 62.1908C35.8233 61.09 35.3497 59.8358 36.6905 59.2757C36.4007 57.6473 36.1044 56.1206 35.8666 54.5852C35.6849 53.4023 36.1066 52.8379 37.2765 52.6952C38.7124 52.5178 40.1548 52.4097 41.6513 52.2648C42.1617 49.6006 43.7922 47.5549 45.719 45.6994C46.571 44.8798 47.2284 44.8863 48.0913 45.7232C50.0094 47.5873 51.6119 49.6482 52.1482 52.3946C52.8337 52.3946 53.4803 52.3665 54.1225 52.4032C54.767 52.4378 55.4136 52.5005 56.0493 52.6151C57.7945 52.9309 58.1254 53.385 57.8248 55.1474C57.5912 56.5163 57.282 57.8744 56.9965 59.2865C58.0172 59.6866 58.0086 60.5862 57.8464 61.4988C57.5999 62.8936 57.2971 64.2776 57.0095 65.7113C58.0821 66.1547 58.0021 67.1126 57.8377 68.0274C57.5674 69.5282 57.2149 71.0138 56.8906 72.5319C57.8096 73.0336 57.9848 73.2866 57.8832 74.409C57.708 76.3488 57.3404 78.2474 56.4408 80.0034C55.3898 82.0513 53.7873 83.405 51.4583 83.684C50.4354 83.8073 49.3866 83.7056 48.3227 83.7056V93.4261H61.9963V32.7827H31.6778C31.6778 33.1092 31.6778 33.3752 31.6778 33.6412C31.6778 52.9568 31.6778 72.2746 31.6778 91.5902C31.6778 93.0131 32.1384 93.4694 33.5765 93.4694C37.2463 93.4715 40.9139 93.4694 44.5837 93.4694H45.4141V83.4591H45.4098ZM64.8464 93.4694C68.8666 93.4694 72.7483 93.4694 76.63 93.4694C78.2108 93.4694 78.6282 93.0477 78.6282 91.4431C78.6282 81.5993 78.6282 71.7556 78.6282 61.9096C78.6282 52.1999 78.6347 42.4902 78.6109 32.7827C78.6109 32.3048 78.5071 31.682 78.2022 31.3706C76.0937 29.2167 73.9182 27.1256 71.7103 24.9609C69.5888 27.0996 67.5128 29.2167 65.4001 31.2971C64.9762 31.7144 64.8357 32.134 64.8378 32.7135C64.8508 52.6454 64.8486 72.5752 64.8486 92.5071V93.4672L64.8464 93.4694ZM70.3501 21.5701C70.3501 20.8586 70.3501 20.1904 70.3501 19.5243C70.3501 17.1456 69.3229 16.1075 66.9679 16.1075C60.0889 16.1075 53.2121 16.1075 46.3332 16.1075C44.7156 16.1075 43.0959 16.0924 41.4783 16.1119C40.0965 16.1292 38.9028 16.9163 38.7211 18.1511C38.5568 19.2691 38.6865 20.4326 38.6865 21.5701H70.3501ZM33.3408 29.8309C33.6262 29.8633 33.73 29.8871 33.8338 29.8871C43.3532 29.8871 52.8726 29.8936 62.392 29.872C62.6926 29.872 63.0602 29.6795 63.283 29.4611C64.8097 27.9754 66.3083 26.4617 67.8113 24.9501C67.9432 24.816 68.0405 24.6473 68.1746 24.47C68.0513 24.4332 68.0275 24.4181 68.0015 24.4181C58.1059 24.4116 48.2081 24.4051 38.3124 24.4116C38.0961 24.4116 37.8042 24.4938 37.6744 24.6452C36.2472 26.3211 34.8459 28.0208 33.3408 29.8309ZM38.9157 74.928C38.8162 75.0318 38.7168 75.1356 38.6194 75.2394C39.0238 76.4439 39.305 77.7068 39.8608 78.8378C40.9745 81.1084 43.0159 81.3182 45.0875 80.6003C45.2303 80.5505 45.3989 80.3862 45.4335 80.2434C45.9396 78.1393 44.5923 75.7411 42.4947 75.2567C41.3377 74.9885 40.1116 75.0275 38.9157 74.928ZM55.1389 75.2761C55.0654 75.1875 54.9919 75.0988 54.9183 75.008C54.1701 75.008 53.4219 74.9885 52.6737 75.0123C49.724 75.0988 47.9832 77.071 48.2902 79.9948C48.314 80.2132 48.4849 80.5397 48.6622 80.6003C50.5566 81.2533 52.6153 81.1971 53.7571 79.0173C54.3691 77.8495 54.6891 76.5282 55.1389 75.2761ZM48.3421 73.5332C49.9121 72.5103 51.5881 72.2356 53.331 72.1794C53.5581 72.1729 53.902 71.9372 53.9798 71.7275C54.3928 70.6094 54.741 69.4676 55.1173 68.3107C50.6949 67.5343 47.9248 69.1238 48.3421 73.5332ZM38.6216 68.2847C38.9763 69.4222 39.3028 70.4862 39.6402 71.548C39.8002 72.0497 40.1375 72.1967 40.6738 72.2248C41.5799 72.2746 42.4947 72.4 43.3727 72.6184C44.0733 72.7936 44.7264 73.1547 45.4162 73.438C45.7341 69.1778 43.2148 67.5906 38.6216 68.2847ZM45.4011 60.2012C45.6801 56.2979 43.0418 54.6176 38.6519 55.394C38.9633 56.4298 39.2509 57.4549 39.5969 58.4604C39.6618 58.6464 39.971 58.8626 40.17 58.867C41.9865 58.9037 43.7468 59.1589 45.4011 60.2012ZM55.1108 55.2729C53.9214 55.2729 52.9224 55.1864 51.9427 55.2902C49.4472 55.554 47.9918 57.5565 48.3962 60.145C49.9965 59.1697 51.7502 58.8994 53.5689 58.8626C53.7808 58.8583 54.1009 58.5945 54.1744 58.3847C54.5118 57.403 54.7799 56.3952 55.1108 55.2729ZM38.5762 61.6242C38.9611 62.913 39.2596 63.9554 39.5991 64.9826C39.6467 65.1296 39.9062 65.3048 40.0619 65.3005C41.9432 65.2572 43.736 65.5794 45.3903 66.5785C45.626 64.2214 44.5339 62.3897 42.499 61.9529C41.314 61.6977 40.0662 61.7366 38.574 61.622L38.5762 61.6242ZM55.1065 61.7691C53.9452 61.7691 52.9375 61.6609 51.9644 61.7907C49.4212 62.1259 47.9702 64.0916 48.4027 66.5526C50.0094 65.5859 51.7589 65.2788 53.5906 65.3005C53.7874 65.3026 54.1074 65.0907 54.1701 64.909C54.5096 63.9035 54.7821 62.8741 55.1065 61.7691ZM46.8997 48.4999C45.7904 49.633 44.9254 50.8203 44.5361 52.2821C44.4539 52.5935 44.5361 53.1125 44.7524 53.3071C45.4163 53.9148 46.1796 54.4144 46.8846 54.942C47.4685 54.4857 48.0783 53.904 48.7854 53.4866C49.3499 53.1514 49.4147 52.8163 49.2439 52.2454C48.8135 50.8116 47.968 49.6547 46.8997 48.4999Z" fill="#F37021"></path>
</svg>
