<svg width="191" height="166" viewBox="0 0 191 166" fill="none" xmlns="http://www.w3.org/2000/svg">
<path d="M-0.000167847 131.384C11.7304 127.082 20.7239 120.435 26.9802 111.442C32.8455 102.448 35.7782 91.695 35.7782 79.1824H-0.000167847V0.000793457H73.3161V79.1824C73.3161 90.131 71.361 100.297 67.4508 109.682C63.5406 119.066 58.2618 127.278 51.6145 134.316C44.9671 141.746 37.3423 148.002 28.7398 153.085C19.7464 158.168 10.1664 162.274 -0.000167847 165.402V131.384ZM116.719 131.384C128.45 127.082 137.443 120.435 143.7 111.442C149.565 102.448 152.498 91.695 152.498 79.1824H116.719V0.000793457H190.036V79.1824C190.036 90.131 188.081 100.297 184.17 109.682C180.26 119.066 174.981 127.278 168.334 134.316C161.687 141.746 154.062 148.002 145.459 153.085C136.466 158.168 126.886 162.274 116.719 165.402V131.384Z" fill="white"/>
</svg>
