<svg width="45" height="39" viewBox="0 0 45 39" fill="none" xmlns="http://www.w3.org/2000/svg">
<path d="M44.3453 8.34071C41.608 9.34441 39.5093 10.8956 38.0494 12.9942C36.6807 15.0929 35.9964 17.6021 35.9964 20.522H44.3453V38.9992H27.2368V20.522C27.2368 17.9671 27.693 15.5947 28.6055 13.4048C29.5179 11.2149 30.7498 9.29879 32.3009 7.65637C33.8521 5.9227 35.6314 4.46278 37.6388 3.27658C39.7374 2.09039 41.973 1.13231 44.3453 0.402344V8.34071ZM17.1085 8.34071C14.3712 9.34441 12.2725 10.8956 10.8126 12.9942C9.44392 15.0929 8.75957 17.6021 8.75957 20.522H17.1085V38.9992H0V20.522C0 17.9671 0.456228 15.5947 1.36868 13.4048C2.28114 11.2149 3.51295 9.29879 5.06413 7.65637C6.6153 5.9227 8.39459 4.46278 10.402 3.27658C12.5006 2.09039 14.7362 1.13231 17.1085 0.402344V8.34071Z" fill="#F37021"/>
</svg>
