<svg width="54" height="18" viewBox="0 0 54 18" role="img" xmlns="http://www.w3.org/2000/svg" aria-hidden="true" data-vimeo-icon="true"><path fill="#fff" fill-rule="evenodd" clip-rule="evenodd" d="M17.1192 1.32529C17.1011 1.76753 16.8758 2.19197 16.4427 2.59836C15.9559 3.05781 15.3789 3.28759 14.7119 3.28759C13.6845 3.28759 13.1881 2.84607 13.2245 1.96218C13.2418 1.50286 13.5168 1.06061 14.0487 0.636176C14.5808 0.21258 15.1711 0 15.8207 0C16.1992 0 16.5146 0.146412 16.7675 0.437671C17.0197 0.729653 17.1367 1.02548 17.1192 1.32529ZM17.7011 13.0761C17.6 13.1708 17.4962 13.2641 17.3896 13.3562C16.181 14.3855 14.9735 14.9003 13.766 14.9003C13.2063 14.9003 12.778 14.7228 12.4809 14.3676C12.1837 14.0126 12.0438 13.5517 12.062 12.9831C12.0794 12.3977 12.2642 11.4922 12.6159 10.2672C12.9677 9.04241 13.1439 8.3853 13.1439 8.29652C13.1439 7.83551 12.981 7.60428 12.6571 7.60428C12.555 7.60428 12.2769 7.77023 11.8227 8.10073C11.4798 9.10988 10.7329 10.3442 9.58186 11.8036C7.94436 13.9012 6.5589 14.9501 5.42559 14.9501C4.72371 14.9501 4.1294 14.3115 3.64413 13.0338L2.67201 9.5206C2.31167 8.24356 1.92519 7.60426 1.51184 7.60426C1.42173 7.60426 1.10644 7.79121 0.566591 8.16344L0 7.44389C0.59431 6.92922 1.18068 6.41456 1.75765 5.89905C2.55027 5.22401 3.14543 4.86899 3.54217 4.83314C4.47949 4.74436 5.05646 5.37584 5.27308 6.72759C5.50692 8.18593 5.66896 9.09304 5.75981 9.44818C6.03016 10.6581 6.32726 11.2625 6.65219 11.2625C6.90423 11.2625 7.28277 10.87 7.78781 10.0852C8.29201 9.3002 8.56236 8.70301 8.59875 8.29265C8.67067 7.61521 8.40032 7.2757 7.78781 7.2757C7.49939 7.2757 7.20217 7.34115 6.89641 7.47036C7.48828 5.55955 8.61926 4.63151 10.2884 4.68432C11.403 4.71661 11.9869 5.3614 12.04 6.6187C12.3087 6.37895 12.5773 6.1391 12.846 5.89907C13.6213 5.22403 14.1982 4.86889 14.5776 4.83316C15.1719 4.78023 15.609 4.95226 15.8887 5.35096C16.1677 5.74953 16.2713 6.2666 16.2001 6.90362C15.9654 7.9836 15.7124 9.35472 15.4422 11.0178C15.424 11.7794 15.7037 12.1594 16.2807 12.1594C16.5328 12.1594 16.9833 11.897 17.6329 11.3707L17.6568 11.3514C17.6982 10.9804 17.7648 10.5395 17.8569 10.029C18.0055 9.20512 18.0884 8.56353 18.1059 8.10264C18.1414 7.78419 18.06 7.62455 17.8624 7.62455C17.7541 7.62455 17.4475 7.8044 16.9425 8.16339L16.2936 7.44397C16.3838 7.37383 16.9512 6.85832 17.9976 5.899C18.7546 5.20689 19.2684 4.85174 19.5387 4.83382C20.0074 4.79809 20.3859 4.98877 20.6745 5.40623C20.9629 5.82357 21.1075 6.3078 21.1075 6.85832C21.1075 7.03589 21.0894 7.2048 21.0539 7.36457C21.3241 6.95649 21.6394 6.60063 22.0006 6.29854C22.8296 5.58837 23.7584 5.18812 24.7858 5.09933C25.6694 5.02847 26.3001 5.23251 26.6795 5.71217C26.9852 6.10304 27.1291 6.66294 27.1117 7.39091C27.2382 7.28504 27.3733 7.16907 27.518 7.04443C27.9322 6.56489 28.3376 6.18329 28.7343 5.899C29.4013 5.41935 30.096 5.15311 30.8168 5.09933C31.6822 5.02847 32.3041 5.23179 32.6828 5.70988C33.0067 6.09919 33.1514 6.65669 33.1159 7.38165C33.0976 7.87755 32.976 8.59866 32.7508 9.54546C32.5246 10.4923 32.4124 11.0358 32.4124 11.1775C32.3943 11.5498 32.4307 11.8059 32.5207 11.9476C32.6108 12.0893 32.8266 12.1593 33.1696 12.1593C33.3237 12.1593 33.5517 12.0614 33.8539 11.8652C33.8254 11.6415 33.8136 11.4089 33.8184 11.1674C33.8359 9.72924 34.4855 8.36197 35.7659 7.06471C37.1718 5.64451 38.8307 4.9335 40.7418 4.9335C42.5089 4.9335 43.4462 5.64282 43.5545 7.06002C43.6264 7.96328 43.1214 8.89372 42.0402 9.85075C40.8856 10.8964 39.4338 11.5607 37.6855 11.844C38.0096 12.2871 38.4964 12.5083 39.146 12.5083C40.4438 12.5083 41.8593 12.1836 43.3925 11.5326C43.4607 11.5043 43.528 11.4758 43.5944 11.4474C43.5823 11.339 43.5733 11.2286 43.5673 11.1161C43.4765 9.5907 44.0351 8.18902 45.2443 6.9121C46.5421 5.49333 48.1733 4.78413 50.1388 4.78413C51.4003 4.78413 52.3559 5.20147 53.0054 6.03459C53.6187 6.79769 53.8977 7.78179 53.8439 8.98725C53.7714 10.6192 53.1587 12.0294 52.0049 13.2175C50.851 14.4058 49.4173 15 47.7047 15C46.2805 15 45.1985 14.5475 44.4596 13.6427C44.2931 13.4353 44.1496 13.2118 44.0292 12.9724C43.8357 13.0907 43.6324 13.209 43.4193 13.3273C41.5083 14.4097 39.5697 14.9501 37.605 14.9501C36.1444 14.9501 35.098 14.4704 34.4673 13.512C34.4211 13.4446 34.3774 13.3759 34.3361 13.3059L34.2784 13.3561C33.0701 14.3856 31.8623 14.9003 30.6549 14.9003C29.4819 14.9003 28.9146 14.2618 28.9507 12.9832C28.9682 12.4147 29.0813 11.7319 29.2882 10.9331C29.4953 10.1341 29.6084 9.51274 29.6266 9.06893C29.6448 8.39462 29.4368 8.05668 29.0021 8.05668C28.532 8.05668 27.9716 8.60792 27.3204 9.70896C26.6328 10.8637 26.2614 11.9826 26.2076 13.0657C26.1712 13.8304 26.2471 14.4168 26.4352 14.8247C25.177 14.8606 24.2956 14.6558 23.793 14.2119C23.3426 13.821 23.1363 13.1733 23.1727 12.2669C23.1901 11.6985 23.2786 11.13 23.4382 10.5617C23.597 9.99324 23.6856 9.48711 23.7038 9.04247C23.7402 8.38536 23.4959 8.05668 22.9727 8.05668C22.5206 8.05668 22.0329 8.56353 21.5098 9.57578C20.9866 10.588 20.6974 11.6455 20.6436 12.7466C20.6072 13.7416 20.672 14.4338 20.8372 14.8247C19.5995 14.8606 18.7207 14.6035 18.2006 14.0538C17.9631 13.8005 17.7966 13.4746 17.7011 13.0761ZM40.3632 7.9913C40.3807 7.51477 40.183 7.27573 39.7689 7.27573C39.2283 7.27573 38.6798 7.64254 38.1219 8.37592C37.5638 9.10942 37.2754 9.81177 37.2579 10.483C37.2477 10.483 37.2477 10.5982 37.2579 10.8279C38.1399 10.5101 38.9051 10.0243 39.5531 9.37024C40.0748 8.80505 40.345 8.34476 40.3632 7.9913ZM50.5847 7.56539C50.738 7.96564 50.8059 8.40644 50.7877 8.88682C50.7515 9.74099 50.4905 10.5593 50.0038 11.3426C49.4268 12.2864 48.7321 12.7574 47.9212 12.7574C47.56 12.7574 47.2802 12.562 47.0827 12.1703C46.9026 11.8324 46.8212 11.4408 46.8393 10.9953C46.8748 10.0882 47.1452 9.23414 47.6511 8.43291C48.2453 7.4541 49.0025 6.96434 49.9223 6.96434C50.2102 6.96434 50.4313 7.16513 50.5847 7.56539Z"></path></svg>