<svg xmlns="http://www.w3.org/2000/svg" width="30" height="31" viewBox="0 0 30 31" fill="none">
                        <mask id="mask0_0_141" style="mask-type:alpha" maskUnits="userSpaceOnUse" x="0" y="0" width="30" height="31">
                            <rect y="0.298584" width="30" height="30" fill="#D9D9D9"></rect>
                        </mask>
                        <g mask="url(#mask0_0_141)">
                            <path d="M15.25 16.5486L14.125 17.6736C13.8958 17.9028 13.7813 18.1944 13.7813 18.5486C13.7813 18.9028 13.8958 19.1944 14.125 19.4236C14.3542 19.6528 14.6458 19.7673 15 19.7673C15.3542 19.7673 15.6458 19.6528 15.875 19.4236L19.125 16.1736C19.375 15.9236 19.5 15.6319 19.5 15.2986C19.5 14.9653 19.375 14.6736 19.125 14.4236L15.875 11.1736C15.6458 10.9444 15.3542 10.8298 15 10.8298C14.6458 10.8298 14.3542 10.9444 14.125 11.1736C13.8958 11.4028 13.7813 11.6944 13.7813 12.0486C13.7813 12.4028 13.8958 12.6944 14.125 12.9236L15.25 14.0486H11.25C10.8958 14.0486 10.599 14.1684 10.3594 14.408C10.1198 14.6475 10 14.9444 10 15.2986C10 15.6528 10.1198 15.9496 10.3594 16.1892C10.599 16.4288 10.8958 16.5486 11.25 16.5486H15.25ZM15 27.7986C13.2708 27.7986 11.6458 27.4705 10.125 26.8142C8.60417 26.158 7.28125 25.2673 6.15625 24.1423C5.03125 23.0173 4.14063 21.6944 3.48438 20.1736C2.82812 18.6528 2.5 17.0278 2.5 15.2986C2.5 13.5694 2.82812 11.9444 3.48438 10.4236C4.14063 8.90275 5.03125 7.57983 6.15625 6.45483C7.28125 5.32983 8.60417 4.43921 10.125 3.78296C11.6458 3.12671 13.2708 2.79858 15 2.79858C16.7292 2.79858 18.3542 3.12671 19.875 3.78296C21.3958 4.43921 22.7188 5.32983 23.8438 6.45483C24.9688 7.57983 25.8594 8.90275 26.5156 10.4236C27.1719 11.9444 27.5 13.5694 27.5 15.2986C27.5 17.0278 27.1719 18.6528 26.5156 20.1736C25.8594 21.6944 24.9688 23.0173 23.8438 24.1423C22.7188 25.2673 21.3958 26.158 19.875 26.8142C18.3542 27.4705 16.7292 27.7986 15 27.7986ZM15 25.2986C17.7917 25.2986 20.1562 24.3298 22.0938 22.3923C24.0312 20.4548 25 18.0903 25 15.2986C25 12.5069 24.0312 10.1423 22.0938 8.20483C20.1562 6.26733 17.7917 5.29858 15 5.29858C12.2083 5.29858 9.84375 6.26733 7.90625 8.20483C5.96875 10.1423 5 12.5069 5 15.2986C5 18.0903 5.96875 20.4548 7.90625 22.3923C9.84375 24.3298 12.2083 25.2986 15 25.2986Z" fill="white"></path>
                        </g>
                    </svg>