<?xml version="1.0" encoding="UTF-8"?>
<svg xmlns="http://www.w3.org/2000/svg" width="110" height="110" viewBox="0 0 110 110" fill="none">
  <path d="M39.3099 13.2215C42.7239 14.4009 44.3276 17.2197 45.5938 20.2872C47.1153 23.9745 47.8527 27.8505 48.126 31.8199C48.1393 32.0131 48.1571 32.2064 48.1837 32.3996C48.1993 32.5062 48.2348 32.6106 48.2881 32.8305C49.4235 32.3851 50.5357 31.9493 51.6391 31.5159C51.786 31.4583 52.0081 31.4758 52.0179 31.6333V31.6333C52.249 36.0247 52.1731 40.2539 49.2832 43.9634C46.9865 46.9132 44.0233 48.7324 40.3139 49.2921C39.9007 49.3543 39.5809 49.3943 39.5875 49.9563C39.612 52.3663 39.5986 54.7786 39.6008 57.1886C39.6008 57.2864 39.6386 57.3863 39.6786 57.584C39.9385 57.3419 40.1406 57.1686 40.3272 56.9821C41.7977 55.5138 43.2526 54.0278 44.7363 52.5729C48.9389 48.4547 55.4138 48.4503 59.612 52.5551C60.2605 53.1896 60.901 53.8312 61.586 54.5182C62.0445 54.9782 61.7186 55.7648 61.0691 55.7648V55.7648C58.9078 55.7648 56.7466 55.7648 54.5853 55.7648C53.0149 55.7648 51.6533 56.3001 50.5427 57.4063C47.0087 60.927 43.4858 64.4565 39.9718 67.9972C39.7808 68.1904 39.6164 68.5103 39.612 68.7746C39.5853 70.9625 39.5986 73.1527 39.6031 75.3428C39.6031 75.4161 39.6475 75.4872 39.6986 75.6427C39.9318 75.4272 40.1317 75.2562 40.3183 75.0696C41.7688 73.6191 43.2037 72.1553 44.6675 70.7182C48.9456 66.5201 55.385 66.5156 59.6675 70.6982C60.48 71.4909 61.2852 72.2924 62.1627 73.1621C62.4133 73.4105 62.2571 73.8612 61.9043 73.8612V73.8612C59.5498 73.8657 57.1931 73.8923 54.8385 73.8546C53.0416 73.8257 51.5533 74.4477 50.2961 75.7115C46.8776 79.15 43.4458 82.5774 40.0318 86.0203C39.8341 86.2202 39.6186 86.5201 39.6164 86.7755C39.5875 89.7653 39.5986 92.7551 39.5986 95.7982H71.8776C71.6755 95.5738 71.54 95.4139 71.3956 95.2651C68.0571 91.8644 64.703 88.477 61.3845 85.0563C60.0518 83.6813 58.4814 83.0083 56.5667 83.035C54.2943 83.0661 52.022 83.0416 49.7497 83.0416V83.0416C49.3853 83.0416 49.2001 82.5997 49.453 82.3374C51.7061 80.0012 53.7751 77.6824 57.0909 77.0487C60.747 76.3513 63.9612 77.1975 66.6755 79.7497C68.2282 81.2113 69.7008 82.7595 71.2113 84.2655C71.4001 84.4521 71.5978 84.6298 71.8888 84.9008C71.9132 84.5365 71.9443 84.3033 71.9443 84.0678C71.9487 81.9621 71.9687 79.8564 71.9265 77.7506C71.9176 77.3597 71.7422 76.8732 71.4734 76.5978C68.0904 73.1638 64.6653 69.7675 61.2712 66.3446C59.9874 65.0496 58.4547 64.4365 56.6488 64.441C54.3499 64.4454 52.0487 64.441 49.7497 64.441V64.441C49.3923 64.441 49.2209 63.9929 49.4673 63.7341C51.7912 61.2931 54.0039 58.8829 57.5307 58.3637C60.6633 57.9031 63.4548 58.5711 65.9275 60.5116C66.3202 60.8198 66.3416 61.3966 65.9995 61.7602C65.8315 61.9388 65.6651 62.1155 65.4986 62.2924C65.1752 62.6359 64.642 62.6642 64.2592 62.3885C61.5089 60.408 58.576 60.2032 55.4338 61.9376C55.7648 61.9376 56.0958 61.9487 56.4245 61.9376C59.1344 61.8332 61.369 62.8239 63.2548 64.7608C65.8448 67.4197 68.4947 70.0229 71.1113 72.6573C71.3223 72.8706 71.4778 73.1416 71.66 73.3837C71.7488 73.3437 71.8377 73.3015 71.9265 73.2615C71.9265 72.2064 71.9487 71.1513 71.9065 70.0985C71.8976 69.9008 71.6422 69.6964 71.4689 69.5232C70.1407 68.1969 68.8092 66.8771 67.4422 65.5218C67.0739 65.1566 67.0936 64.5553 67.4849 64.2147C67.6817 64.0435 67.8784 63.8722 68.0797 63.6968C68.4389 63.3837 68.9807 63.4076 69.3105 63.7515C70.0891 64.5634 70.9389 65.4492 71.8799 66.429C71.9176 66.0247 71.9421 65.8715 71.9421 65.7182C71.9443 63.0016 71.9287 60.2873 71.9554 57.5707C71.9598 57.0354 71.7688 56.8577 71.2668 56.7777C64.4831 55.7182 59.6919 50.2739 59.4854 43.3814C59.4532 42.3223 59.4641 41.2632 59.4726 40.1477C59.4774 39.5196 60.1105 39.0882 60.6955 39.3171C61.5518 39.6523 62.3908 39.9811 63.2815 40.3294C63.3881 39.3032 63.4747 38.3237 63.5902 37.3485C64.0456 33.5102 64.9074 29.7808 66.6067 26.2823C67.3619 24.7297 68.2948 23.2903 69.6298 22.1575C71.9243 20.2117 74.4898 20.1917 76.7821 22.1286C78.5658 23.6368 79.6453 25.6337 80.5049 27.7506C82.002 31.4489 82.7595 35.3161 83.0394 39.2855C83.0616 39.6098 83.1193 39.9296 83.1704 40.3272C84.0704 39.9735 84.9296 39.6363 85.7822 39.3017C86.3248 39.0887 86.9233 39.4461 86.9685 40.0272C87.5855 47.9635 84.2731 54.6787 75.8825 56.6777C75.4561 56.7799 75.0185 56.8332 74.5498 56.9132V66.2735C74.7941 66.0669 74.9785 65.9292 75.1406 65.7671C76.6311 64.2788 78.1082 62.7773 79.6098 61.3001C83.6213 57.353 89.8475 57.1353 94.0678 60.8515C95.0089 61.6792 95.8557 62.6145 96.7571 63.5804C97.0583 63.903 96.8303 64.4312 96.389 64.4365V64.4365C93.8146 64.4676 91.238 64.461 88.6658 64.552C87.4019 64.5965 86.329 65.2273 85.4427 66.1069C81.9065 69.6231 78.3859 73.1571 74.8719 76.6955C74.6942 76.8732 74.5276 77.1598 74.5254 77.3952C74.5054 79.8053 74.5187 82.2153 74.5254 84.6276C74.5254 84.672 74.5764 84.7142 74.6409 84.8208C74.883 84.5943 75.1207 84.381 75.345 84.1567C76.7955 82.7084 78.2304 81.2424 79.6964 79.8075C83.6546 75.9292 89.9563 75.7537 94.0922 79.4521C94.6531 79.9532 95.1849 80.4873 95.7174 81.0429C96.4272 81.7835 95.8883 83.0227 94.8624 83.0333C94.7626 83.0343 94.6629 83.0356 94.5631 83.0372C92.5152 83.0683 90.4516 82.9661 88.4303 83.2193C87.413 83.3481 86.2801 83.9368 85.5383 84.6631C81.891 88.2238 78.357 91.9021 74.7852 95.5405C74.7342 95.5916 74.7075 95.6694 74.6142 95.8315H84.7505C85.2432 95.8315 85.6427 96.2309 85.6427 96.7237V97.4449C85.6427 97.9376 85.2432 98.3371 84.7505 98.3371H14.0914C13.5987 98.3371 13.1992 97.9376 13.1992 97.4449V96.7348C13.1992 96.2421 13.5987 95.8426 14.0914 95.8426H36.9354C36.9753 95.676 37.0131 95.5983 37.0131 95.5205C37.0176 92.6396 37.0309 89.7564 37.0042 86.8755C37.002 86.5889 36.811 86.2469 36.6066 86.0292C35.7315 85.1029 34.8207 84.21 33.9145 83.3148C32.8899 82.3029 31.8609 81.2955 30.8323 80.2876C30.4453 79.9084 30.4391 79.2873 30.8187 78.9006C30.984 78.7323 31.1481 78.5652 31.3154 78.3949C31.7009 78.0024 32.3337 78.003 32.7182 78.3963C34.1188 79.8288 35.5201 81.2611 37.0242 82.7995C37.0242 81.7067 37.0575 80.8026 37.0064 79.903C36.9887 79.5832 36.8421 79.1967 36.6199 78.9701C34.4653 76.7755 32.2908 74.6009 30.1073 72.4352C29.0233 71.3579 27.7261 70.6404 26.2312 70.3073C24.2521 69.8675 22.3752 70.114 20.6137 71.1735C22.4151 71.2668 24.2743 71.2246 25.8114 72.2464C27.0038 73.0396 28.0918 73.9874 29.1581 74.8846C29.6033 75.2593 29.6394 75.9373 29.2294 76.3501C29.0746 76.506 28.9233 76.6584 28.7725 76.8103C28.3814 77.2042 27.7411 77.1962 27.3594 76.7932C27.0765 76.4946 26.788 76.1891 26.5022 75.8804C25.185 74.4565 23.5791 73.7857 21.6199 73.8368C19.3498 73.8946 17.0753 73.8524 14.8052 73.8479V73.8479C14.4329 73.8479 14.2606 73.3782 14.5225 73.1136C15.4685 72.1572 16.3422 71.2614 17.2508 70.405C20.4671 67.3708 25.2761 66.6622 29.1899 68.7324C30.2961 69.3188 31.3023 70.1496 32.2263 71.007C33.819 72.4863 35.3094 74.0767 36.8576 75.6338C36.9531 75.4983 37.0087 75.4561 37.0087 75.4139C37.0175 73.1704 37.0309 70.9248 37.0087 68.6813C37.0064 68.4459 36.8332 68.1638 36.6555 67.9838C33.1215 64.4254 29.5853 60.8714 26.0246 57.3375C24.9362 56.2579 23.5835 55.7471 22.0442 55.7471C20.1872 55.7471 18.3325 55.7471 16.4755 55.7471C15.6961 55.7471 14.9167 55.7471 14.1373 55.7471C14.0721 55.7471 14.0134 55.7091 13.9877 55.6492V55.6492C13.9609 55.587 13.9758 55.514 14.0247 55.4671C15.3683 54.1769 16.612 52.7549 18.0926 51.6466C21.5066 49.0878 25.265 48.7368 29.1099 50.6049C30.2294 51.1491 31.2357 51.9998 32.1597 52.8572C33.7768 54.3521 35.2872 55.9603 36.8554 57.5329C36.9465 57.4108 37.0042 57.3708 37.0042 57.3308C37.0131 54.8386 37.0331 52.3441 36.9976 49.8519C36.9953 49.6586 36.6222 49.3388 36.3889 49.3055C34.5831 49.0411 32.9038 48.4481 31.3401 47.5218C26.3587 44.5738 23.7122 38.6897 24.503 32.4341C24.573 31.8805 25.1501 31.5595 25.6705 31.7611C26.5576 32.105 27.4501 32.4512 28.3814 32.8128C28.4302 32.3663 28.4769 32.0398 28.4991 31.711C28.7834 27.7706 29.5187 23.9234 31.0291 20.2628C32.2952 17.193 33.9034 14.3809 37.313 13.197H39.3077L39.3099 13.2215ZM79.1011 30.7048C78.2104 28.9212 77.4929 27.3108 76.6155 25.7937C76.1846 25.0495 75.5271 24.3898 74.8519 23.8434C73.7924 22.9905 72.7151 22.9794 71.6466 23.799C69.3965 25.5293 68.4858 28.0615 67.5618 30.7159H68.484C69.026 30.7159 69.4654 31.1553 69.4654 31.6973V32.2223C69.4654 32.7643 69.0261 33.1974 68.4841 33.1925C68.1244 33.1893 67.7738 33.1931 67.4263 33.2237C67.1953 33.2437 66.8488 33.4592 66.7888 33.6568C66.6 34.281 66.52 34.9407 66.3756 35.707H68.4907C69.0327 35.707 69.4721 36.1464 69.4721 36.6884V37.2134C69.4721 37.7555 69.0327 38.1948 68.4907 38.1948H66.0314C65.9669 39.0944 65.9492 39.9207 65.8359 40.7337C65.7626 41.2579 65.9292 41.5178 66.3845 41.771C68.779 43.1015 70.6937 44.9496 72.1198 47.2908C72.5018 47.915 72.835 48.5702 73.1926 49.2144C73.2837 49.1566 73.3481 49.1389 73.3659 49.0989C74.8585 45.8492 77.162 43.3548 80.2961 41.6244C80.4427 41.5422 80.6338 41.349 80.6293 41.2135C80.5871 40.2295 80.5005 39.2455 80.4205 38.1815H77.979C77.437 38.1815 76.9976 37.7421 76.9976 37.2001V36.6396C76.9976 36.0976 77.437 35.6582 77.979 35.6582H80.0718C79.9385 34.9496 79.8697 34.3121 79.6764 33.7146C79.6053 33.4947 79.2522 33.2504 79.0034 33.2237C78.6633 33.1877 78.3202 33.1833 77.97 33.1872C77.428 33.1934 76.9887 32.7621 76.9887 32.2201V31.6818C76.9887 31.1398 77.4281 30.7004 77.9701 30.7004H79.0989L79.1011 30.7048ZM33.4725 23.1948C34.0638 23.1948 34.5431 23.6741 34.5431 24.2654V24.6409C34.5431 25.2322 34.0638 25.7043 33.4725 25.7019C33.136 25.7006 32.8025 25.7054 32.4707 25.7292C32.2597 25.7448 31.9331 25.9425 31.882 26.1202C31.6977 26.771 31.6066 27.4485 31.4622 28.2081H33.4769C34.0682 28.2081 34.5475 28.6875 34.5475 29.2787V29.6564C34.5475 30.2477 34.0682 30.727 33.4769 30.727H31.1091C31.0491 31.5978 31.0402 32.4018 30.9225 33.1882C30.8403 33.7457 31.0091 34.0233 31.4933 34.2966C34.3765 35.9181 36.5311 38.237 37.9816 41.2113C38.0682 41.3912 38.1948 41.5533 38.3236 41.7577C39.9851 38.8923 42.3559 36.3416 45.436 34.1055C45.5715 34.0078 45.7204 33.8057 45.7137 33.6591C45.6693 32.6973 45.5826 31.7377 45.5049 30.7048H43.1437C42.5524 30.7048 42.0731 30.2255 42.0731 29.6342V29.261C42.0731 28.6697 42.5524 28.1904 43.1437 28.1904H45.1584C45.0207 27.4596 44.9407 26.7999 44.7541 26.1713C44.6941 25.9736 44.3543 25.7515 44.1255 25.7315C43.7983 25.7035 43.4691 25.6979 43.137 25.6996C42.5457 25.7027 42.0664 25.2322 42.0664 24.6409V24.2876C42.0664 23.6963 42.5457 23.217 43.137 23.217H43.9811C43.1704 20.8292 42.2996 18.5924 40.5471 16.8399C39.0722 15.3672 37.5817 15.3516 36.1157 16.8021C34.3365 18.5635 33.448 20.8159 32.6573 23.1948H33.4725ZM36.9487 46.7733C36.3667 41.2601 31.6844 35.7537 27.1908 35.245C26.6799 40.707 31.189 46.2979 36.9487 46.7733ZM49.4209 35.1851C44.0122 36.7688 39.3965 42.3374 39.7541 46.7777C45.687 46.2202 49.9585 40.4538 49.4209 35.1851ZM71.8421 54.2766C71.4867 48.9767 66.9065 43.5591 62.1109 42.715C61.5778 48.0505 65.9425 53.7302 71.8421 54.2766ZM84.3255 42.7084C79.341 43.8123 74.7808 49.2299 74.6298 54.2299C80.1495 53.959 84.9496 48.1882 84.3255 42.7084ZM90.9692 62.0087C90.987 61.9399 91.0025 61.871 91.0203 61.8021C90.9114 61.7333 90.8093 61.6533 90.696 61.5956C87.7084 60.0651 84.0123 60.5938 81.5467 62.9816C79.2988 65.1584 77.1109 67.3997 74.903 69.6165C74.7519 69.7675 74.5476 69.963 74.5409 70.1429C74.5054 71.178 74.5231 72.2153 74.5231 73.4214C74.8563 73.1149 75.0585 72.9417 75.2473 72.7528C77.9483 70.0496 80.6582 67.353 83.3437 64.632C84.7519 63.206 86.4045 62.2575 88.4014 62.022C89.2455 61.9243 90.1118 62.0065 90.9692 62.0065V62.0087ZM20.5671 53.2437C20.8047 53.2437 21.0402 53.2548 21.2779 53.2437C24.1744 53.086 26.5289 54.1544 28.5302 56.2402C31.058 58.8746 33.679 61.4223 36.2623 64.0056C36.4645 64.2077 36.6844 64.3943 36.9354 64.6253C37.1997 62.6418 37.2397 60.8626 35.3938 59.6164C34.763 59.19 34.2899 58.5369 33.739 57.9883C32.464 56.7177 31.2268 55.4116 29.9052 54.19C27.2913 51.7738 23.3564 51.3359 20.5667 53.2425C20.5661 53.2428 20.5664 53.2437 20.5671 53.2437V53.2437ZM56.2912 53.1793C55.938 52.9794 55.7826 52.8794 55.6182 52.7995C52.5951 51.3534 49.0145 51.9421 46.4956 54.3854C44.2899 56.5223 42.1442 58.7235 39.9807 60.9048C39.8163 61.0714 39.6253 61.3068 39.6164 61.5156C39.5786 62.5218 39.5986 63.5303 39.5986 64.7142C39.9629 64.3743 40.1828 64.1811 40.3894 63.9745C43.0904 61.2735 45.7937 58.5747 48.4858 55.8648C49.7697 54.572 51.2735 53.6702 53.0749 53.3814C54.0472 53.226 55.0506 53.2503 56.289 53.1816C56.2902 53.1816 56.2912 53.1805 56.2912 53.1793V53.1793ZM74.5143 91.8C74.6187 91.8688 74.7253 91.9377 74.8297 92.0065C74.9985 91.7533 75.1318 91.4668 75.3428 91.2535C77.9527 88.6214 80.5938 86.0181 83.186 83.3659C85.0696 81.4401 87.293 80.4228 90.0052 80.5405C90.3361 80.5538 90.6693 80.5405 91.0025 80.5405C90.8937 80.3006 90.7804 80.2273 90.6604 80.1651C87.5662 78.6125 83.9301 79.2122 81.3357 81.7533C79.1811 83.8635 77.0665 86.0136 74.9452 88.1571C74.763 88.3415 74.5454 88.5992 74.5342 88.8324C74.4876 89.8186 74.5143 90.8093 74.5143 91.7977V91.8ZM39.5964 82.6196L39.863 82.7662C40.0473 82.5263 40.2073 82.2597 40.4183 82.0465C43.0749 79.3744 45.7603 76.7311 48.3947 74.0367C50.225 72.1642 52.4263 71.2802 55.0185 71.2891V71.2891C55.3176 71.2891 55.4201 70.9266 55.1501 70.7977C52.383 69.4766 48.8551 70.159 46.4645 72.4974C44.2854 74.6298 42.1486 76.7999 40.0029 78.9656C39.823 79.1478 39.6231 79.4143 39.6142 79.6476C39.5697 80.636 39.5964 81.6267 39.5964 82.6151V82.6196ZM71.9398 92.0021C71.9398 90.8226 71.9554 89.8364 71.9265 88.8546C71.9221 88.6613 71.7866 88.4348 71.6444 88.2904C69.341 85.9781 67.0642 83.6391 64.703 81.3868C62.8883 79.6565 60.6249 79.0989 58.1793 79.4321C57.2375 79.5609 56.3334 79.9741 55.4116 80.2562C55.4338 80.3517 55.4538 80.4472 55.476 80.5427C55.8781 80.5427 56.2846 80.5005 56.6799 80.5516C57.6884 80.676 58.7146 80.7537 59.6897 81.0136C61.0536 81.3779 62.1398 82.2486 63.1304 83.2393C66.0069 86.1114 68.8923 88.9723 71.9398 92.0043V92.0021Z" fill="#F37021"></path>
  <path d="M97.1183 95.9041C97.7764 95.9041 98.31 96.4376 98.31 97.0957V97.0957C98.31 97.7539 97.7764 98.2874 97.1183 98.2874H89.4417C88.7835 98.2874 88.25 97.7539 88.25 97.0957V97.0957C88.25 96.4376 88.7835 95.9041 89.4417 95.9041H97.1183Z" fill="#F37021"></path>
  <path d="M74.4572 27.2763C74.4572 27.7691 74.0578 28.1685 73.5651 28.1685H72.8883C72.3955 28.1685 71.9961 27.7691 71.9961 27.2763V26.6351C71.9961 26.1424 72.3955 25.7429 72.8883 25.7429H73.5651C74.0578 25.7429 74.4572 26.1424 74.4572 26.6351V27.2763Z" fill="#F37021"></path>
  <path d="M72.8883 33.1564C72.3955 33.1564 71.9961 32.7569 71.9961 32.2642V31.6274C71.9961 31.1347 72.3955 30.7352 72.8883 30.7352H73.5651C74.0578 30.7352 74.4572 31.1347 74.4572 31.6274V32.2642C74.4572 32.7569 74.0578 33.1564 73.5651 33.1564H72.8883Z" fill="#F37021"></path>
  <path d="M74.455 37.2619C74.455 37.7546 74.0556 38.1541 73.5628 38.1541H72.8883C72.3955 38.1541 71.9961 37.7546 71.9961 37.2619V36.6118C71.9961 36.119 72.3955 35.7196 72.8883 35.7196H73.5628C74.0556 35.7196 74.455 36.119 74.455 36.6118V37.2619Z" fill="#F37021"></path>
  <path d="M71.9492 40.712H73.5493C74.042 40.712 74.4415 41.1115 74.4415 41.6042V42.3165C74.4415 42.8093 74.0421 43.2117 73.5493 43.2141C73.1421 43.216 72.736 43.2131 72.3313 43.1887C72.198 43.1798 71.9781 42.9288 71.9692 42.78C71.9293 42.1254 71.9514 41.4686 71.9515 40.7143C71.9515 40.713 71.9505 40.712 71.9492 40.712V40.712Z" fill="#F37021"></path>
  <path d="M37.9742 20.6768C37.4815 20.6768 37.082 20.2774 37.082 19.7847V19.1545C37.082 18.6618 37.4815 18.2623 37.9742 18.2623H38.6532C39.146 18.2623 39.5454 18.6618 39.5454 19.1545V19.7847C39.5454 20.2774 39.146 20.6768 38.6532 20.6768H37.9742Z" fill="#F37021"></path>
  <path d="M39.5409 24.7675C39.5409 25.2602 39.1415 25.6597 38.6488 25.6597H37.9742C37.4815 25.6597 37.082 25.2602 37.082 24.7675V24.1307C37.082 23.638 37.4815 23.2385 37.9742 23.2385H38.6488C39.1415 23.2385 39.5409 23.638 39.5409 24.1307V24.7675Z" fill="#F37021"></path>
  <path d="M38.651 28.2391C39.1437 28.2391 39.5432 28.6386 39.5432 29.1313V29.7415C39.5432 30.2342 39.1437 30.6336 38.651 30.6336H37.9742C37.4815 30.6336 37.082 30.2342 37.082 29.7415V29.1313C37.082 28.6386 37.4815 28.2391 37.9742 28.2391H38.651Z" fill="#F37021"></path>
  <path d="M38.6566 33.2396C39.1493 33.2396 39.5488 33.6391 39.5488 34.1318V34.7531C39.5488 35.2458 39.1493 35.6452 38.6566 35.6452H37.982C37.4893 35.6452 37.0898 35.2458 37.0898 34.7531V34.1318C37.0898 33.6391 37.4893 33.2396 37.982 33.2396H38.6566Z" fill="#F37021"></path>
</svg>
