<?xml version="1.0" encoding="UTF-8"?>
<svg xmlns="http://www.w3.org/2000/svg" width="110" height="110" viewBox="0 0 110 110" fill="none">
  <path d="M54.7185 13.197C55.3838 13.2041 55.9169 13.7489 55.9075 14.4142C55.8917 15.5247 55.8766 16.6357 55.9016 17.7456C55.908 18.0308 56.1612 18.3607 56.3847 18.5863C58.3557 20.5722 59.554 22.8646 59.4327 25.7508C59.3263 28.2901 58.1982 30.3249 56.4337 32.0468C56.0123 32.4598 55.842 32.8621 55.8675 33.4346C55.9058 34.3541 55.8781 35.2758 55.8781 36.3911C57.9151 34.4371 60.2245 33.6198 62.9575 33.6262V31.3806C62.9575 30.6953 63.513 30.1397 64.1984 30.1397V30.1397C64.8837 30.1397 65.4401 30.6953 65.4441 31.3806C65.4496 32.3087 65.455 33.2244 65.4329 34.1391C65.3967 35.6227 65.4861 37.1382 65.2073 38.5792C64.4772 42.3402 61.1376 45.186 57.2787 45.5414C56.836 45.5819 56.3932 45.6329 55.9356 45.6798V53.072C57.9321 51.1436 60.2543 50.3496 62.9575 50.3475V48.4744C62.9575 47.594 63.6712 46.8802 64.5516 46.8802H65.1818C65.2731 46.8802 65.4095 46.9038 65.4095 46.9952V46.9952C65.4137 49.3301 65.5478 51.6757 65.3861 54C65.0987 58.1101 62.2253 61.2347 58.1471 62.0989C57.4256 62.2521 56.6891 62.3245 55.8803 62.4458C55.8803 64.6871 55.8803 66.9135 55.8803 69.1377C55.8803 69.3123 55.9079 69.4868 55.9335 69.7997C57.9236 67.8734 60.2437 67.0774 62.9468 67.0752V65.2542C62.9468 64.3474 63.682 63.6122 64.5888 63.6122H65.1868C65.2716 63.6122 65.4031 63.6274 65.4031 63.7123V63.7123C65.3733 66.392 65.5053 69.0845 65.2605 71.7451C64.9093 75.5296 61.3335 78.6521 57.3064 78.9969C56.8594 79.0352 56.4124 79.082 55.8888 79.131V93.5273C55.8888 94.1884 55.3529 94.7242 54.6919 94.7242H54.6443C53.9833 94.7242 53.4474 94.1884 53.4474 93.5273V79.182C52.6216 79.0565 51.8532 79.0075 51.1231 78.8181C47.5111 77.8815 44.9527 75.7807 44.0949 72.0304C43.8331 70.8852 43.8927 69.6592 43.8693 68.4673C43.8437 67.2568 43.8517 66.0451 43.8573 64.8169C43.8604 64.1398 44.4097 63.5909 45.0868 63.5909V63.5909C45.7639 63.5909 46.3128 64.1398 46.3128 64.8169V67.0603C49.0032 67.0923 51.3509 67.8245 53.341 69.7912V62.5948C51.8936 62.1989 50.4229 61.9861 49.116 61.4028C46.1233 60.064 44.2098 57.7419 43.9693 54.4023C43.8181 52.3067 43.8983 50.1958 43.9266 48.053C43.9352 47.4042 44.4613 46.8781 45.1102 46.8781V46.8781C45.7591 46.8781 46.2851 47.4041 46.2851 48.053V50.322C48.9861 50.3624 51.3594 51.0882 53.358 53.0762V45.8479C52.0064 45.4839 50.6208 45.2817 49.3841 44.7454C45.7806 43.1788 43.8799 40.3926 43.8629 36.4081C43.856 34.7357 43.8603 33.0633 43.8621 31.3604C43.8629 30.6921 44.4046 30.1504 45.0729 30.1504V30.1504C45.7412 30.1504 46.283 30.6921 46.283 31.3604V33.59C48.9797 33.6411 51.3636 34.3456 53.4091 36.4081C53.4091 35.0586 53.4368 33.9093 53.3857 32.762C53.3751 32.53 53.0856 32.2874 52.8855 32.0894C51.3998 30.6144 50.3228 28.9159 49.9674 26.8214C49.9374 26.6466 49.9192 26.4695 49.9059 26.2888C49.8696 25.7931 50.276 25.3698 50.773 25.3698H51.4551C51.8349 25.3698 52.1691 25.6204 52.2627 25.9884C52.4457 26.7074 52.6088 27.4276 52.9196 28.0772C53.3176 28.9137 53.9604 29.6331 54.4904 30.3994C57.7661 28.2135 57.7853 22.8625 54.5223 20.2678C53.9536 21.0711 53.3894 21.8684 52.7838 22.723C52.5671 23.0287 52.1767 23.1576 51.8207 23.0409C51.5957 22.9671 51.358 22.8892 51.1105 22.808C50.6768 22.6657 50.4261 22.2049 50.5984 21.7822C51.0521 20.6692 51.7646 19.7506 52.6109 18.946C53.2473 18.3416 53.4921 17.7179 53.4368 16.8559C53.3856 16.0864 53.3804 15.3135 53.3798 14.5404C53.3791 13.8011 53.9792 13.197 54.7185 13.197V13.197V13.197ZM53.341 43.1384C54.1349 39.537 50.044 35.4354 46.3958 36.1761C45.7743 39.4923 49.0117 43.7365 53.341 43.1384ZM55.9441 43.1533C59.8648 43.7003 63.7642 39.72 62.8574 36.1569C59.1177 35.5674 55.2694 39.4369 55.9441 43.1533ZM46.383 52.8953C45.7487 56.7117 49.7226 60.6366 53.3623 59.8363C54.003 56.1391 50.1589 52.2823 46.383 52.8953ZM55.9356 59.8746C60.1011 60.477 63.6152 56.2541 62.8766 52.9017C58.9368 52.4568 55.3652 56.0135 55.9356 59.8746ZM53.3516 76.5874C54.0732 72.9243 49.9674 68.8313 46.3851 69.6465C45.6763 73.367 49.5608 77.2366 53.3516 76.5874ZM55.942 76.6108C60.2969 77.1834 63.645 72.7583 62.8574 69.623C58.8665 69.242 55.3056 72.8158 55.942 76.6108Z" fill="#F37021"></path>
  <path d="M28.4338 13.197C29.0981 13.2042 29.6303 13.7482 29.6209 14.4125C29.6052 15.5236 29.59 16.6352 29.615 17.7458C29.6214 18.031 29.8768 18.3588 30.1003 18.5844C32.0649 20.5745 33.2696 22.8626 33.1483 25.7488C33.0419 28.2881 31.9138 30.3208 30.1514 32.0449C29.73 32.4557 29.5576 32.858 29.581 33.4305C29.6214 34.35 29.5916 35.2738 29.5916 36.1358C30.7133 35.4951 31.7435 34.7332 32.8993 34.2904C34.0635 33.8456 35.3492 33.72 36.6944 33.4305V31.3659C36.6944 30.6876 37.2442 30.1378 37.9225 30.1378V30.1378C38.6008 30.1378 39.1528 30.6876 39.1576 31.3659C39.1618 31.9744 39.1634 32.5754 39.1442 33.1772C39.0868 35.0844 39.206 37.0255 38.8739 38.8858C38.1779 42.8022 35.2938 45.2159 31.3136 45.5373C30.7644 45.582 30.2153 45.6331 29.6427 45.6842V53.0721C31.6414 51.1501 33.9571 50.3434 36.6624 50.3541V48.4934C36.6624 47.6049 37.3827 46.8846 38.2712 46.8846H38.8972C38.9835 46.8846 39.1166 46.9026 39.1166 46.9889V46.9889C39.0506 49.8752 39.2336 52.7976 38.842 55.6412C38.3503 59.2149 35.8472 61.4477 32.2969 62.099C31.4391 62.2565 30.5665 62.3246 29.5895 62.4481V69.8467C31.6307 67.8885 33.9614 67.0584 36.6816 67.0861V64.8352C36.6816 64.154 37.2338 63.6017 37.915 63.6017V63.6017C38.5962 63.6017 39.1519 64.154 39.1523 64.8352C39.1524 65.0586 39.1515 65.2815 39.1485 65.5046C39.1208 67.4415 39.1932 69.3869 39.0336 71.3132C38.6781 75.6468 35.5407 78.6671 31.2007 79.0013C30.7006 79.0396 30.2004 79.0886 29.6172 79.1396V84.2342C29.6172 84.6591 29.2727 85.0036 28.8478 85.0036H27.9239C27.499 85.0036 27.1545 84.6591 27.1545 84.2342V79.3397C25.5539 78.9672 24.0405 78.7693 22.6421 78.2585C19.7346 77.1942 18.0467 74.9423 17.7636 71.9369C17.5428 69.5758 17.6641 67.1829 17.701 64.7596C17.7105 64.1296 18.2212 63.6188 18.8513 63.6188V63.6188C19.4814 63.6188 19.9922 64.1295 19.9922 64.7596V67.0605C22.6911 67.1052 25.0686 67.8225 27.0672 69.8148V62.4587C26.1328 62.3246 25.1835 62.2565 24.2662 62.0437C20.4221 61.154 17.9701 58.4317 17.687 54.4663C17.5358 52.3504 17.6161 50.2161 17.6444 48.0585C17.6529 47.4067 18.1814 46.8783 18.8332 46.8783V46.8783C19.485 46.8783 20.0134 47.4067 20.0134 48.0585V50.337C22.7166 50.3668 25.0814 51.1118 27.0821 53.0892V45.7864C25.8519 45.5607 24.6344 45.433 23.4744 45.1031C20.0752 44.1368 17.9105 41.5528 17.7104 38.0217C17.5835 35.816 17.6513 33.5996 17.6741 31.3446C17.6806 30.6946 18.2076 30.1676 18.8577 30.1676V30.1676C19.5078 30.1676 20.0347 30.6945 20.0347 31.3446V33.6157C22.7294 33.6349 25.0686 34.3841 27.1119 36.3934C27.1119 35.0546 27.1311 33.8818 27.0928 32.7111C27.0864 32.5238 26.8374 32.328 26.6713 32.1641C22.4718 28.0433 22.4804 22.6625 26.6841 18.529C26.8906 18.3268 27.1056 18.0097 27.1098 17.7436C27.1293 16.681 27.1172 15.6185 27.1031 14.5552C27.0932 13.8115 27.69 13.203 28.4338 13.197V13.197V13.197ZM27.0502 43.1407C27.8718 39.5648 23.7745 35.4483 20.1135 36.1741C19.4771 39.4328 22.6762 43.7324 27.0502 43.1407ZM29.6512 43.147C33.5101 43.7473 37.3989 39.7989 36.5837 36.1635C32.8908 35.5271 29.0254 39.3903 29.6512 43.147ZM27.0545 59.8684C27.8463 56.2712 23.7489 52.1654 20.1092 52.9061C19.4877 56.2393 22.7422 60.4665 27.0545 59.8684ZM29.6597 59.862C33.2611 60.6431 37.3691 56.548 36.6198 52.9189C32.7481 52.3378 28.9382 56.1393 29.6597 59.862ZM27.0715 76.6067C27.6589 72.4115 23.4148 68.9187 20.0837 69.6722C19.4877 73.4523 23.087 77.0516 27.0715 76.6067ZM36.605 69.6381C32.2714 69.0294 29.0297 73.3225 29.6746 76.6025C33.3484 77.3113 37.4585 73.182 36.605 69.6381ZM28.3379 30.3357C31.4881 28.1136 31.4455 22.3156 28.3039 20.3978C25.3687 22.803 25.3666 27.8347 28.3379 30.3357Z" fill="#F37021"></path>
  <path d="M81.01 13.197C81.6768 13.2042 82.2111 13.7502 82.2016 14.417C82.1859 15.5266 82.1708 16.6368 82.1958 17.7457C82.2022 18.031 82.4576 18.3588 82.6811 18.5844C84.6457 20.5745 85.8504 22.8626 85.7269 25.751C85.6205 28.2902 84.4924 30.3251 82.7279 32.047C82.3065 32.4599 82.1362 32.8622 82.1617 33.4348C82.2 34.3543 82.1724 35.2759 82.1724 36.3912C84.2093 34.4373 86.5187 33.62 89.2517 33.6263V31.3808C89.2517 30.6955 89.8073 30.1399 90.4926 30.1399V30.1399C91.1779 30.1399 91.7346 30.6955 91.7397 31.3808C91.7464 32.2823 91.7528 33.1714 91.725 34.0605C91.676 35.6207 91.7463 37.215 91.444 38.7326C90.6842 42.5404 87.4957 45.2266 83.6261 45.5501C83.177 45.5884 82.73 45.6395 82.2298 45.6906V53.0679C84.22 51.1608 86.5507 50.3328 89.2709 50.3583V48.1032C89.2709 47.4232 89.8221 46.8719 90.5022 46.8719V46.8719C91.1822 46.8719 91.736 47.4231 91.74 48.1032C91.7432 48.6246 91.7436 49.142 91.7292 49.6581C91.6739 51.6184 91.8144 53.617 91.4802 55.5305C90.7757 59.5555 87.849 61.9777 83.7389 62.2757C83.2409 62.3119 82.7449 62.3651 82.2298 62.4119V69.8062C84.2263 67.8778 86.5485 67.0818 89.2517 67.0818V65.2033C89.2517 64.3258 89.963 63.6145 90.8405 63.6145H91.4816C91.5707 63.6145 91.7058 63.6362 91.7058 63.7252V63.7252C91.642 66.5859 91.8506 69.4891 91.4355 72.2987C90.8566 76.2236 87.7937 78.6948 83.8347 79.0034C83.309 79.0438 82.7854 79.0971 82.1873 79.1503V83.9305C82.1873 84.5443 81.6897 85.0419 81.0759 85.0419H80.8552C80.2414 85.0419 79.7438 84.5443 79.7438 83.9305V79.1524C78.9648 79.0758 78.2751 79.0587 77.6047 78.9374C73.0156 78.1073 70.5041 75.385 70.2167 70.7257C70.0961 68.7701 70.1587 66.8026 70.183 64.8086C70.1911 64.1444 70.7296 63.606 71.3937 63.606V63.606C72.0579 63.606 72.5963 64.1444 72.5963 64.8086V67.0626C75.2995 67.0903 77.6643 67.8374 79.665 69.8105V62.5205C78.3879 62.2757 77.1194 62.1309 75.9104 61.7819C72.6985 60.8602 70.4977 58.1698 70.2955 54.8175C70.1465 52.3825 70.1975 49.9369 70.1614 47.4955V47.4955C70.1574 47.1539 70.4569 46.8868 70.7985 46.8868H71.3641C72.0482 46.8868 72.6027 47.4413 72.6027 48.1254V50.3221C75.274 50.3711 77.6536 51.082 79.6522 53.0764V45.7331C78.7242 45.5948 77.7728 45.5267 76.8576 45.3053C72.7943 44.3262 70.387 41.357 70.1912 36.9936C70.0933 34.8204 70.1678 32.6387 70.1678 30.4634V30.4634C70.1678 30.2689 70.3723 30.1378 70.5668 30.1378H71.2969C72.0275 30.1378 72.6197 30.73 72.6197 31.4606V33.6114C75.3123 33.6327 77.6557 34.3798 79.7012 36.3912C79.7012 35.0524 79.7204 33.8796 79.6821 32.7111C79.6757 32.5238 79.4288 32.3258 79.2627 32.1641C75.0611 28.0391 75.0675 22.6604 79.2734 18.529C79.4798 18.3268 79.6948 18.0097 79.6991 17.7436C79.7186 16.677 79.7063 15.6094 79.6922 14.5422C79.6824 13.8074 80.2752 13.197 81.01 13.197V13.197V13.197ZM80.9506 30.3378C84.4094 27.5708 83.7113 22.2219 80.874 20.4021C77.8941 22.8733 77.9133 27.988 80.9506 30.3378ZM79.6416 43.1555C80.3483 39.4328 76.2254 35.3376 72.6751 36.1912C72.111 39.4286 75.1526 43.6451 79.6416 43.1555ZM82.2447 43.1364C85.9781 43.8494 89.7966 40.0224 89.1921 36.1763C85.563 35.4249 81.4636 39.5307 82.2447 43.1364ZM79.6395 59.8854C80.3547 56.1755 76.2382 52.0781 72.6772 52.9189C72.1089 56.1393 75.1356 60.3707 79.6395 59.8854ZM82.2341 59.879C86.5613 60.4558 89.9328 56.0584 89.1538 52.8933C85.1714 52.5038 81.6083 56.0733 82.2341 59.879ZM79.6544 76.6025C80.2312 72.3327 75.9061 68.9038 72.6623 69.6785C72.0898 73.4779 75.6954 77.075 79.6544 76.6025ZM82.2341 76.5812C85.7865 77.4241 89.92 73.3161 89.2027 69.6551C85.3885 69.0102 81.5445 72.8308 82.2341 76.5812Z" fill="#F37021"></path>
  <path d="M28.6097 87.5077C29.1291 87.5077 29.5501 87.9287 29.5501 88.4481V93.7892C29.5501 94.3086 29.1291 94.7296 28.6097 94.7296H28.1279C27.6085 94.7296 27.1875 94.3086 27.1875 93.7892V88.4481C27.1875 87.9287 27.6085 87.5077 28.1279 87.5077H28.6097Z" fill="#F37021"></path>
  <path d="M79.7656 88.4238C79.7656 87.9044 80.1867 87.4834 80.706 87.4834H81.1687C81.688 87.4834 82.1091 87.9044 82.1091 88.4238V93.7926C82.1091 94.312 81.688 94.733 81.1687 94.733H80.706C80.1867 94.733 79.7656 94.312 79.7656 93.7926V88.4238Z" fill="#F37021"></path>
</svg>
