<?xml version="1.0" encoding="UTF-8"?>
<svg xmlns="http://www.w3.org/2000/svg" width="110" height="110" viewBox="0 0 110 110" fill="none">
  <path d="M99.0004 47.6578C98.549 48.3487 97.9156 48.586 97.0956 48.5192C92.5883 48.1599 89.1403 46.1929 87.3024 41.932C86.031 38.9885 83.8683 37.5996 80.6945 37.4568C76.8481 37.2841 74.0198 35.3632 72.5181 31.837C70.9404 28.1288 68.264 26.4083 64.2841 26.436C57.9065 26.4797 51.5289 26.4475 45.149 26.4475C41.3418 26.4475 38.8289 28.1426 37.3065 31.6366C35.6828 35.3655 32.8107 37.3117 28.7386 37.4822C25.7467 37.6065 23.66 39.0345 22.4877 41.8099C20.7465 45.935 16.778 48.5422 12.342 48.5123C11.324 48.5053 10.7321 47.9986 10.7344 47.1349C10.7344 46.3035 11.2825 45.8198 12.2591 45.7553C15.9534 45.5158 18.6045 43.892 20.12 40.3474C21.6562 36.7567 24.5537 34.8957 28.4806 34.7321C31.4656 34.6078 33.6721 33.2903 34.7661 30.4735C36.3162 26.4751 40.3744 23.5823 45.0684 23.6652C51.7039 23.7804 58.3418 23.6928 64.9773 23.6951C69.4202 23.6974 73.1445 26.1296 74.8259 30.2201C76.0604 33.2258 78.2669 34.6055 81.4752 34.7529C85.3216 34.9279 88.1362 36.8695 89.6333 40.398C91.0958 43.8436 93.6892 45.4674 97.2707 45.7277C98.0307 45.7829 98.5789 46.0179 99.0004 46.619V47.6532V47.6578Z" fill="#F37021"></path>
  <path d="M61.4801 70.809C60.6003 70.809 59.7412 70.8252 58.8798 70.8044C57.9216 70.7814 57.3228 70.2517 57.3067 69.4547C57.2882 68.6417 57.9446 68.0406 58.9097 68.0244C60.0866 68.006 61.2682 68.0613 62.4428 67.9945C62.7998 67.9738 63.2213 67.7342 63.4747 67.4648C64.2578 66.6287 64.9694 65.7258 65.718 64.8552C67.427 62.8676 68.5164 60.6611 68.1686 57.9433C68.1456 57.7728 68.1295 57.6001 68.0903 57.4343C68.0581 57.2961 67.9959 57.1648 67.9199 56.9552C67.7748 57.1441 67.6504 57.2823 67.5513 57.4389C65.0086 61.4649 61.1968 63.3305 56.6019 63.8533C56.2886 63.8879 55.9708 63.9086 55.6553 63.9017C53.9302 63.8718 52.8937 64.6502 52.1889 66.2809C50.3256 70.6017 47.3038 73.7502 42.5799 74.9272C34.8549 76.8504 26.4551 71.09 25.368 63.2107C24.783 58.9774 26.0198 55.1863 28.072 51.621C33.116 42.8549 40.8065 37.6566 50.5997 35.6919C55.7152 34.6647 60.5335 35.7633 64.5272 39.4485C64.7668 39.6696 65.2574 39.6926 65.6282 39.6857C70.412 39.5867 74.3366 41.2404 77.0383 45.3171C78.4318 47.4199 78.9546 49.8475 79.3208 52.2912C79.6824 54.7165 79.6755 57.1556 79.1872 59.574C79.0858 60.0784 79.2286 60.3547 79.7077 60.5759C80.8271 61.0918 81.9349 61.6376 83.0198 62.225C84.024 62.7685 84.1529 64.079 83.2385 64.5996C82.9046 64.7907 82.3357 64.8161 81.9718 64.671C80.7534 64.1827 79.5764 63.5839 78.411 63.0403C77.4621 64.7884 76.5246 66.5135 75.5458 68.3193C76.5454 69.2198 77.6164 70.1664 78.6643 71.1407C78.9292 71.3871 79.2079 71.6912 79.3116 72.0205C79.4935 72.6078 79.3553 73.1836 78.7772 73.5199C78.1738 73.8723 77.5496 73.8262 77.0176 73.3702C76.1216 72.6055 75.2556 71.8063 74.3758 71.0255C74.1432 70.8182 73.9036 70.6202 73.5098 70.2839C72.1232 72.3199 70.7804 74.2915 69.387 76.3367C70.5271 77.1037 71.4737 77.7394 72.4181 78.3774C73.4683 79.0868 73.7332 79.7962 73.2403 80.57C72.7474 81.3416 71.8952 81.3762 70.8288 80.6714C70.2069 80.2614 69.5828 79.8514 68.9563 79.4461C68.9195 79.423 68.8504 79.4484 68.7122 79.4553C68.7122 80.7866 68.6431 82.1247 68.7306 83.4537C68.8343 85.0544 68.0857 86.4179 66.6577 86.9453C65.2551 87.4636 63.7718 86.9845 62.8736 85.6878C61.4617 83.6494 60.6026 81.3946 60.3262 78.7966C59.4947 79.0614 58.7208 79.3125 57.9446 79.5566C56.9243 79.8768 56.1666 79.5681 55.9155 78.7367C55.6668 77.9144 56.056 77.2857 57.051 76.9379C57.9424 76.6246 58.8383 76.3206 59.7389 76.0373C60.1627 75.9037 60.34 75.7034 60.4344 75.2197C60.7108 73.7687 61.1093 72.3384 61.4847 70.8021L61.4801 70.809ZM66.7729 50.4601C66.7982 48.4448 66.4873 46.9247 65.7019 45.5589C62.4843 39.9644 58.1151 37.2351 51.2838 38.4535C42.2483 40.0634 35.182 44.8979 30.5226 52.9338C28.7583 55.9786 27.6367 59.2101 28.118 62.856C28.8781 68.6072 35.205 73.3541 40.94 72.4144C45.1618 71.7211 47.9372 69.1945 49.531 65.4011C50.7563 62.4829 52.7716 61.1471 55.8833 61.1056C62.1526 61.0204 66.7591 56.2896 66.7729 50.4601ZM67.1989 42.4887C67.222 42.6039 67.2174 42.6707 67.2474 42.7098C69.4078 45.6441 69.8891 48.9423 69.3156 52.4478C69.2189 53.0374 69.3363 53.4589 69.6288 53.9541C70.9785 56.2182 71.3954 58.6389 70.7689 61.2323C70.2415 63.4134 69.1521 65.2744 67.6228 66.8774C66.2431 68.3262 65.0547 69.8947 64.2831 71.7464C62.558 75.8853 62.482 79.939 64.9971 83.8291C65.1284 84.0341 65.4163 84.1377 65.6305 84.2897C65.7295 84.0525 65.8746 83.8222 65.9115 83.5757C65.9529 83.2971 65.9115 83.0022 65.8815 82.7166C65.513 79.1513 66.3007 75.8392 68.316 72.9003C69.7417 70.8228 71.4115 68.9135 72.9271 66.8959C77.3561 60.995 77.8859 54.5553 75.2095 47.8506C73.8207 44.3705 70.8265 42.8872 67.1966 42.491L67.1989 42.4887Z" fill="#F37021"></path>
  <path d="M82.4492 76.8142C82.4446 74.1701 84.5429 72.0074 87.1432 71.9751C89.7758 71.9429 92.0122 73.9743 92.0928 76.471C92.125 77.4959 91.6552 78.1201 90.8122 78.1708C89.9854 78.2191 89.4833 77.7308 89.3382 76.7382C89.1562 75.4921 88.2511 74.6607 87.1593 74.739C86.1344 74.8127 85.2707 75.6879 85.2154 76.7082C85.1555 77.8045 85.9824 78.6798 87.2422 78.8617C88.2188 79.0022 88.7094 79.5273 88.6449 80.3611C88.5804 81.1741 87.9769 81.6371 87.005 81.6164C84.5405 81.568 82.4538 79.3661 82.4492 76.8096V76.8142Z" fill="#F37021"></path>
  <path d="M22.4473 73.3386C25.0914 73.334 27.2564 75.4322 27.2886 78.0326C27.3209 80.6651 25.2918 82.9015 22.7928 82.9822C21.8047 83.0144 21.1897 82.5814 21.0976 81.7868C20.9962 80.93 21.5029 80.3749 22.5233 80.2252C23.7716 80.0433 24.6008 79.1381 24.5225 78.0464C24.4488 77.0191 23.5782 76.1577 22.5532 76.1002C21.4615 76.0403 20.5793 76.8694 20.3997 78.127C20.2615 79.1012 19.7318 79.5964 18.9003 79.5319C18.0873 79.4698 17.6266 78.8663 17.6451 77.8921C17.6911 75.4276 19.893 73.3409 22.4496 73.3363L22.4473 73.3386Z" fill="#F37021"></path>
  <path d="M90.0702 54.0478C91.2195 54.0663 92.1109 54.9945 92.0925 56.153C92.074 57.3023 91.1458 58.1936 89.9873 58.1752C88.8403 58.1568 87.9467 57.2263 87.9651 56.0678C87.9835 54.9185 88.9117 54.0271 90.0702 54.0478Z" fill="#F37021"></path>
  <path d="M18.4328 55.4199C19.5706 55.4751 20.4273 56.4425 20.3697 57.6056C20.3145 58.7434 19.3471 59.6025 18.184 59.5449C17.0485 59.4896 16.1894 58.52 16.2447 57.3569C16.3 56.2191 17.265 55.3623 18.4305 55.4199H18.4328Z" fill="#F37021"></path>
  <path d="M45.2133 82.3201C45.2087 83.4763 44.3012 84.3792 43.1427 84.3769C41.9888 84.3746 41.0836 83.4602 41.0859 82.304C41.0882 81.1478 42.0003 80.2449 43.1588 80.2495C44.315 80.2541 45.2179 81.1639 45.2133 82.3201Z" fill="#F37021"></path>
  <path d="M53.6176 42.8442C55.2874 42.789 56.8651 43.1598 58.3346 43.9406C59.0555 44.3252 59.2858 45.0968 58.9633 45.7785C58.6639 46.4119 57.8901 46.7689 57.2245 46.4534C53.8848 44.8688 50.7041 45.6311 47.673 47.2204C46.222 47.9804 44.9713 49.1274 43.6539 50.1316C43.138 50.5255 42.6152 50.8019 42.0025 50.4817C41.4198 50.1777 41.1204 49.6433 41.2609 48.9754C41.3208 48.6852 41.4889 48.3858 41.6869 48.1624C44.4439 45.0507 49.4027 42.8466 53.6176 42.8419V42.8442Z" fill="#F37021"></path>
  <path d="M39.6785 52.6426C39.6854 53.4142 39.1073 54.013 38.3403 54.0314C37.5664 54.0499 36.9584 53.481 36.9308 52.714C36.9008 51.9056 37.5043 51.2791 38.3104 51.2837C39.082 51.286 39.6693 51.871 39.6785 52.6426Z" fill="#F37021"></path>
</svg>
