<?xml version="1.0" encoding="UTF-8"?>
<svg xmlns="http://www.w3.org/2000/svg" width="110" height="110" viewBox="0 0 110 110" fill="none">
  <path d="M12.0044 97.1342C12.0045 96.3757 12.5965 95.7513 13.3531 95.6974C15.6442 95.5341 17.9147 95.2572 20.1238 94.5284C24.2183 93.1748 27.5742 90.6838 30.7025 87.819C32.8313 85.8692 34.9702 83.9312 37.1541 81.9468C37.7107 81.441 38.5927 81.5347 39.049 82.1326V82.1326C39.4751 82.691 39.3599 83.4721 38.8189 83.9201C34.0363 87.8808 30.0117 92.7405 24.3918 95.6928H86.0623C85.8911 95.5509 85.8235 95.4721 85.7402 95.4293C82.6209 93.8077 79.9767 91.5554 77.3664 89.2356C74.6187 86.7965 71.925 84.2605 68.9589 82.1096C64.1098 78.5916 58.5018 77.6952 52.6234 78.1637C48.8397 78.4655 45.3172 79.5601 42.0898 81.5803V81.5803C41.9018 81.6978 41.6499 81.5726 41.5305 81.3858C41.404 81.1877 41.277 80.9891 41.148 80.7873C40.7399 80.1488 40.9211 79.2968 41.5774 78.9177C46.2714 76.2064 51.3714 75.3198 56.7765 75.5444C62.6932 75.7898 67.9296 77.7966 72.5872 81.524C72.9678 79.979 72.9138 78.5556 72.4588 77.1479C71.3372 73.684 70.2471 70.2088 69.0625 66.7652C68.7156 65.7562 68.0917 64.844 67.5872 63.8711C57.8126 70.0782 49.5627 65.9724 44.556 61.0896C46.2226 59.3508 48.2361 58.1054 50.405 56.986C48.7834 54.8666 47.5041 52.6505 46.6866 50.0221C53.2721 48.3532 59.3824 48.682 64.808 53.6324C64.2051 51.7611 63.6456 50.0249 63.0807 48.2718C62.8689 47.6142 63.2102 46.9149 63.8667 46.6999V46.6999C64.5491 46.4765 65.2975 46.8643 65.5167 47.5481C66.6448 51.0663 68.2463 54.4303 67.2742 58.4454C71.657 57.022 75.7876 55.6797 80.0105 54.3081C79.6727 53.477 79.3799 52.7023 79.0443 51.9478C78.3732 50.4478 77.5669 48.9973 77.0173 47.4546C75.9836 44.5537 75.0849 41.6033 74.1435 38.6709C73.666 37.1867 73.4295 35.6777 73.6773 34.1101C73.7561 33.6214 73.6885 33.1101 73.6885 32.4682C69.2494 33.9097 64.8778 35.3308 60.308 36.815C62.1024 38.59 63.3699 40.521 64.0062 42.8095C64.182 43.4419 63.7967 44.0777 63.1731 44.2825C63.1344 44.2952 63.0956 44.3079 63.0567 44.3207C62.4415 44.5227 61.7371 44.2094 61.5648 43.5852V43.5852C61.1279 42.0154 60.3598 40.6506 59.2495 39.4434C57.4297 37.4637 56.8238 35.1214 57.1121 32.4412C57.2338 31.3038 56.9905 30.1057 56.7811 28.9593C56.6211 28.0854 56.3058 27.2273 55.9635 26.4007C55.2811 24.7499 55.5311 23.1868 56.4094 21.7274C58.3959 18.4324 61.2337 16.2162 65.0039 15.313C65.7224 15.1396 66.5219 15.1419 67.2607 15.2432C68.6233 15.4301 69.5467 16.2274 69.9769 17.5675C70.6368 19.6215 71.335 21.6621 71.9723 23.7228C72.3867 25.0674 73.0804 26.2161 74.0331 27.2453C75.7651 29.1169 76.5308 31.3354 76.2538 33.8871C76.0894 35.4142 76.2065 36.8939 76.7155 38.3646C77.6344 41.0335 78.4745 43.7294 79.3934 46.5537C80.4002 44.9951 80.5331 43.3915 80.5038 41.7407C80.4745 40.1191 80.497 38.4952 80.497 36.8241H83.0758C83.0353 40.7609 83.6501 44.7451 81.4069 48.4861H95.5419C95.3595 47.9883 95.2356 47.5424 95.0397 47.1325C94.2829 45.5559 93.9789 43.8915 93.9811 42.1573C93.9856 38.9547 94.0014 35.752 93.9766 32.5471C93.9608 30.6079 94.2581 28.7521 95.1207 26.9976C95.2897 26.6575 95.3752 26.2769 95.5239 25.8467H81.4812C82.8146 28.5178 83.3934 31.2588 83.0105 34.2002H80.497C80.497 33.4277 80.4813 32.6777 80.5015 31.93C80.5353 30.6124 80.2448 29.3804 79.6817 28.189C78.5353 25.7611 78.5286 23.3039 79.6682 20.8738C80.2538 19.626 80.5353 18.3423 80.5015 16.9662C80.472 15.7603 80.4652 14.5545 80.4575 13.3487C80.4529 12.6059 81.0534 12 81.7962 12V12C82.5393 12 83.1391 12.6063 83.1294 13.3493C83.1147 14.4679 83.0996 15.587 83.1028 16.7049C83.1073 18.5247 82.8168 20.2702 82.0038 21.9166C81.8146 22.2994 81.7132 22.7251 81.5578 23.1733H95.5351C95.382 22.7409 95.2942 22.3895 95.1365 22.0742C94.2491 20.2724 93.9406 18.3625 93.9744 16.3693C93.9915 15.3638 93.9731 14.3572 93.9549 13.3502C93.9415 12.6069 94.5399 12 95.2833 12V12C96.0258 12 96.625 12.6054 96.6063 13.3475C96.573 14.6674 96.5317 15.9872 96.6207 17.2995C96.6995 18.4774 96.9495 19.7004 97.409 20.7814C98.4698 23.2837 98.4585 25.689 97.4428 28.2025C96.9721 29.3692 96.6635 30.6732 96.623 31.9277C96.5126 35.2948 96.6072 38.6686 96.5734 42.038C96.5577 43.556 96.8414 44.9726 97.4833 46.3532C98.4653 48.4613 98.6139 50.6843 97.65 52.7969C96.7694 54.7293 96.4878 56.6932 96.5779 58.7675C96.5992 59.2471 96.6 59.7279 96.596 60.2073C96.5899 60.9247 96.0031 61.5062 95.2857 61.5062V61.5062C94.5821 61.5062 94.0044 60.946 93.9849 60.2427C93.8981 57.1207 93.9159 54.0454 95.6725 51.1415H81.5533C81.7042 51.5761 81.7943 51.9568 81.9632 52.2969C82.8303 54.0491 83.1209 55.9072 83.1051 57.8441C83.0803 61.0468 83.0961 64.2472 83.0983 67.4498C83.0983 69.1841 82.7943 70.8485 82.0375 72.425C81.8416 72.8349 81.7177 73.2809 81.5375 73.7741H95.6973C94.0683 71.0742 93.8675 68.2465 93.9818 65.3712C94.0093 64.6807 94.5847 64.1436 95.2757 64.1436V64.1436C95.9986 64.1436 96.591 64.7296 96.5952 65.4525C96.5975 65.8436 96.5951 66.2292 96.5779 66.6143C96.4968 68.4656 96.8099 70.2043 97.5914 71.9205C98.5937 74.1209 98.4856 76.4115 97.4608 78.6051C96.8392 79.9339 96.5644 81.2965 96.5734 82.756C96.6004 86.7447 96.5824 90.7334 96.5824 94.7221C96.5824 95.0194 96.5824 95.3167 96.5824 95.6275C96.7508 95.6441 96.9108 95.6599 97.0646 95.6751C97.7379 95.7416 98.2513 96.3079 98.2513 96.9844V97.1545C98.2513 97.7864 97.7391 98.2986 97.1072 98.2986V98.2986C69.103 98.2986 41.0988 98.2986 13.0946 98.2986V98.2986C12.4922 98.2986 12.0041 97.8225 12.0044 97.2201C12.0044 97.1932 12.0044 97.1646 12.0044 97.1342V97.1342ZM93.9856 95.3887C93.9856 94.9586 93.9856 94.6523 93.9856 94.3482C93.9856 90.4991 93.9901 86.6523 93.9856 82.8033C93.9834 81.0398 94.2716 79.3461 95.0532 77.747C95.2514 77.3439 95.364 76.8979 95.5374 76.416H81.5556C81.7042 76.8461 81.792 77.2245 81.961 77.5646C82.8236 79.3168 83.1299 81.1727 83.1074 83.1118C83.0803 85.4136 83.0916 87.7176 83.1141 90.0217C83.1164 90.3235 83.1929 90.7491 83.3979 90.9045C86.5105 93.2671 89.9766 94.8144 93.9856 95.3865V95.3887ZM80.4948 56.8441C76.3597 58.1887 72.3327 59.4972 68.1886 60.8418C68.5692 61.3058 68.8327 61.6661 69.1345 61.9882C70.2674 63.1954 71.0759 64.5828 71.5827 66.1616C72.6615 69.5219 73.7674 72.871 74.8574 76.229C75.3777 77.8281 75.5309 79.4587 75.2763 81.1321C75.2155 81.5308 75.2673 81.9474 75.2673 82.4362C76.4227 82.06 77.5106 81.7064 78.5984 81.3506C80.5601 80.711 80.5668 80.7087 79.6795 78.7763C78.5578 76.3371 78.5263 73.8912 79.6614 71.4611C80.2448 70.2133 80.5173 68.9318 80.506 67.5557C80.479 64.2967 80.4948 61.04 80.4948 57.781C80.4948 57.5063 80.4948 57.2315 80.4948 56.8464V56.8441ZM73.1075 29.9615C70.6998 27.8309 69.5489 25.162 68.8935 22.4391C67.4138 23.6936 66.0287 24.9954 64.5107 26.1192C62.9679 27.2588 61.1504 27.8287 59.4725 27.939C59.5716 30.1079 59.6662 32.1552 59.7653 34.2948C64.1076 32.8849 68.4859 31.4638 73.1075 29.9615ZM50.2811 51.8532C52.3352 57.5919 59.1572 61.4814 65.2089 60.4724C65.1075 59.8396 65.0625 59.1909 64.8868 58.5783C64.7089 57.959 64.5175 57.2855 64.1323 56.7901C61.2652 53.0919 57.3824 51.5874 52.7946 51.6865C51.9658 51.7045 51.1392 51.7924 50.2811 51.8509V51.8532ZM59.8486 25.3354C62.8373 24.7183 65.4454 22.8783 67.121 19.7995C67.3913 19.3017 67.2742 18.5968 67.3372 17.9864C66.7201 17.9256 66.0602 17.6891 65.4904 17.831C62.558 18.5562 60.3328 20.304 58.718 22.8377C58.5243 23.1395 58.3801 23.4841 58.2698 23.8264C57.9117 24.9368 58.2292 25.358 59.8486 25.3377V25.3354ZM48.4208 61.013C53.3261 64.7201 58.8148 65.4341 62.9589 63.2607C62.9161 63.2292 62.8778 63.1774 62.8305 63.1706C62.6661 63.1413 62.4972 63.1166 62.3305 63.1076C58.6549 62.9229 55.3757 61.7382 52.5897 59.2765C52.4433 59.1481 52.1032 59.0716 51.9433 59.1526C50.7969 59.7247 49.6753 60.3441 48.4208 61.013ZM80.443 83.4519C79.0691 83.9024 77.7876 84.3213 76.3664 84.7852C77.7583 86.0758 79.0398 87.2604 80.443 88.5622V83.4519Z" fill="#F37021"></path>
  <path d="M88.9845 32.511C88.9845 31.8225 89.5426 31.2644 90.2311 31.2644V31.2644C90.9196 31.2644 91.4777 31.8225 91.4777 32.511V35.0087C91.4777 35.6972 90.9196 36.2553 90.2311 36.2553V36.2553C89.5426 36.2553 88.9845 35.6972 88.9845 35.0087V32.511Z" fill="#F37021"></path>
  <path d="M91.4524 40.1001C91.4524 40.7725 90.9073 41.3175 90.235 41.3175H90.19C89.5177 41.3175 88.9727 40.7725 88.9727 40.1001V40.1001C88.9727 39.4278 89.5177 38.8828 90.19 38.8828H90.235C90.9073 38.8828 91.4524 39.4278 91.4524 40.1001V40.1001Z" fill="#F37021"></path>
  <path d="M57.6225 82.3988C57.6225 83.0637 57.0835 83.6027 56.4187 83.6027V83.6027C55.7538 83.6027 55.2148 83.0637 55.2148 82.3988V82.3358C55.2148 81.6709 55.7538 81.132 56.4187 81.132V81.132C57.0835 81.132 57.6225 81.6709 57.6225 82.3358V82.3988Z" fill="#F37021"></path>
  <path d="M45.6285 86.2626C44.96 86.2626 44.418 85.7206 44.418 85.0521V85.025C44.418 84.3564 44.96 83.8145 45.6285 83.8145V83.8145C46.2971 83.8145 46.8391 84.3564 46.8391 85.025V85.0521C46.8391 85.7206 46.2971 86.2626 45.6285 86.2626V86.2626Z" fill="#F37021"></path>
  <path d="M66.2106 83.9928C66.8836 83.9928 67.4291 84.5428 67.4291 85.2158V85.2158C67.4291 85.8887 66.8836 86.4387 66.2106 86.4387V86.4387C65.5377 86.4387 64.9922 85.8887 64.9922 85.2158V85.2158C64.9922 84.5428 65.5377 83.9928 66.2106 83.9928V83.9928Z" fill="#F37021"></path>
  <path d="M60.6184 89.7989C59.951 89.7989 59.41 89.2489 59.41 88.5816V88.5816C59.41 87.9142 59.951 87.3643 60.6184 87.3643V87.3643C61.2857 87.3643 61.8267 87.9142 61.8267 88.5816V88.5816C61.8267 89.2489 61.2857 89.7989 60.6184 89.7989V89.7989Z" fill="#F37021"></path>
  <path d="M50.3398 90.2274C50.3398 89.5638 50.8778 89.0259 51.5414 89.0259V89.0259C52.205 89.0259 52.743 89.5638 52.743 90.2274V90.295C52.743 90.9586 52.205 91.4966 51.5414 91.4966V91.4966C50.8778 91.4966 50.3398 90.9586 50.3398 90.295V90.2274Z" fill="#F37021"></path>
  <path d="M38.8711 91.8995C38.8711 91.239 39.4065 90.7036 40.067 90.7036V90.7036C40.7275 90.7036 41.263 91.2391 41.263 91.8995V91.9784C41.263 92.6389 40.7275 93.1743 40.067 93.1743V93.1743C39.4065 93.1743 38.8711 92.6389 38.8711 91.9784V91.8995Z" fill="#F37021"></path>
  <path d="M69.3945 91.9154C69.3945 91.2505 69.9335 90.7115 70.5983 90.7115V90.7115C71.2632 90.7115 71.8022 91.2505 71.8022 91.9154V91.9807C71.8022 92.6455 71.2632 93.1845 70.5983 93.1845V93.1845C69.9335 93.1845 69.3945 92.6455 69.3945 91.9807V91.9154Z" fill="#F37021"></path>
</svg>
