<svg width="24" height="24" viewBox="0 0 24 24" fill="none" xmlns="http://www.w3.org/2000/svg">
<g id="Frame 1">
<mask id="mask0_3187_646" style="mask-type:alpha" maskUnits="userSpaceOnUse" x="0" y="0" width="24" height="24">
<path id="Shape" fill-rule="evenodd" clip-rule="evenodd" d="M4.94752 2.00007L3.23585 3.71007C1.82085 5.11674 1.59085 7.34007 2.69085 9.00174C5.94585 13.8567 10.0508 17.9934 14.8875 21.2884C16.6442 22.3151 18.9175 22.0301 20.3875 20.5717L20.3908 20.5684L21.8458 19.1334L17.5758 14.8734L16.6825 15.7267C16.2242 16.1851 15.5858 16.4467 14.9092 16.4467H14.8992C14.2192 16.4451 13.5825 16.1767 13.1025 15.6951L8.26918 10.8267C7.27918 9.82841 7.28585 8.21341 8.28252 7.22507L9.20751 6.27174L4.94752 2.00007ZM17.1659 23.5634C16.0826 23.5634 14.9892 23.2817 14.0076 22.7017C8.93589 19.2517 4.68089 14.9634 1.30256 9.92504C-0.23411 7.59837 0.0842235 4.49171 2.05922 2.53004L3.76922 0.821707C4.08089 0.506707 4.49922 0.333374 4.94422 0.333374H4.94756C5.39256 0.333374 5.81256 0.506707 6.12589 0.821707L10.3909 5.08837C11.0342 5.72837 11.0392 6.78171 10.4009 7.43337L9.46922 8.39504C9.11256 8.74837 9.11089 9.30837 9.45256 9.65337L14.2842 14.52C14.4509 14.6867 14.6676 14.8117 14.9092 14.78C15.1426 14.78 15.3626 14.6884 15.5292 14.525L16.4159 13.6784C17.0576 13.0434 18.1092 13.05 18.7542 13.695L23.0192 17.96C23.6676 18.61 23.6676 19.6684 23.0192 20.3167L21.5626 21.7534C20.3626 22.9434 18.7726 23.5634 17.1659 23.5634Z" fill="#3B3B3B"/>
</mask>
<g mask="url(#mask0_3187_646)">
<rect id="Rectangle 159" x="0.333313" y="0.333374" width="23.3333" height="23.3333" fill="white"/>
</g>
</g>
</svg>
