<svg width="55" height="48" viewBox="0 0 55 48" fill="none" xmlns="http://www.w3.org/2000/svg">
<g clip-path="url(#clip0_4034_24627)">
<path fill-rule="evenodd" clip-rule="evenodd" d="M0.10376 34.3169H13.3413V38.3777H9.50376V47.9998H3.99659V38.3777H0.10376V34.3169Z" fill="black"/>
<path fill-rule="evenodd" clip-rule="evenodd" d="M20.0154 39.8793L17.2342 47.9998H11.9513L17.1236 34.3169H22.8518L28.1911 47.9998H22.8518L20.0154 39.8793Z" fill="black"/>
<path fill-rule="evenodd" clip-rule="evenodd" d="M26.9126 34.3169H40.1502V38.3777H36.3678V47.9998H30.8618V38.3777H26.9126V34.3169Z" fill="black"/>
<path fill-rule="evenodd" clip-rule="evenodd" d="M46.8242 39.8793L44.043 47.9998H38.759L43.9314 34.3169H49.6607L54.9999 47.9998H49.6607L46.8242 39.8793Z" fill="black"/>
<path fill-rule="evenodd" clip-rule="evenodd" d="M47.0463 9.1768C46.5457 8.23095 45.8783 7.28619 45.0993 6.45193C43.264 4.44972 40.706 2.83647 37.6463 1.72485C34.5997 0.560143 31.1662 0.00433379 27.6212 0H27.5377C23.9927 0.00433379 20.504 0.560143 17.4563 1.72377C14.4529 2.83647 11.8938 4.44864 10.0585 6.45085C9.27947 7.2851 8.61315 8.22987 8.11151 9.17572C12.0607 8.22987 18.79 7.00666 25.0751 6.83981C25.6872 6.83981 26.1314 7.00666 26.3546 7.39562C26.6883 7.78457 26.6883 9.28623 26.6883 10.01L26.5215 27.4188C26.8552 27.4188 27.1889 27.4741 27.5778 27.4741C27.9115 27.4741 28.3005 27.4741 28.6342 27.4188L28.4673 10.01C28.4673 9.28732 28.411 7.78566 28.7458 7.39562C29.0242 7.00558 29.4684 6.83981 30.0253 6.83981C36.3104 7.00666 43.0961 8.22987 47.0452 9.17572L47.0463 9.1768Z" fill="black"/>
<path fill-rule="evenodd" clip-rule="evenodd" d="M47.8806 11.4576C42.096 10.178 38.2032 9.89958 34.4209 9.73381C31.0839 9.51171 31.0839 10.7349 31.3623 12.9592C31.4176 13.1261 31.4176 13.2929 31.4739 13.4598C32.5866 20.0786 33.9767 25.7515 34.1988 26.6974C42.3192 24.862 48.159 19.7449 48.159 13.7382C48.159 12.9592 48.0485 12.1802 47.8817 11.4576H47.8806Z" fill="black"/>
<path fill-rule="evenodd" clip-rule="evenodd" d="M23.7424 12.959C24.0761 10.7336 24.0209 9.51037 20.7391 9.73356C16.9015 9.90041 13.064 10.1778 7.27942 11.4573C7.11257 12.18 7.00098 12.959 7.00098 13.738C7.00098 16.296 8.05734 18.8551 10.0606 21.0242C11.896 22.9711 14.454 24.5844 17.4584 25.696C18.5711 26.1413 19.738 26.475 20.907 26.7524C21.1302 25.8065 22.5755 20.022 23.6882 13.2927C23.7435 13.1811 23.7435 13.0706 23.7435 12.959H23.7424Z" fill="black"/>
</g>
<defs>
<clipPath id="clip0_4034_24627">
<rect width="54.8961" height="48" fill="white" transform="translate(0.10376)"/>
</clipPath>
</defs>
</svg>
