<svg width="104" height="104" viewBox="0 0 104 104" fill="none" xmlns="http://www.w3.org/2000/svg">
<path d="M44.5 75.5L18 80.5C23.5 86.5 26.5 88 32.5 90L58 81.5L44.5 75.5Z" fill="#F4C5A8"/>
<path d="M31.2728 89.1186C44.72 103.575 87.8488 86.321 85.384 75.037C84.8848 72.7802 81.6712 71.3554 79.7264 72.7386C75.088 76.0458 65.4576 80.4138 60.32 80.653C58.9056 80.7154 56.68 80.913 55.3592 80.3826" fill="#F4C5A8"/>
<path fill-rule="evenodd" clip-rule="evenodd" d="M83.4843 71.6004C84.8097 72.1567 86.0233 73.2965 86.3604 74.8207L86.361 74.8233C86.7443 76.578 86.2174 78.3529 85.1617 80.0114C84.1067 81.669 82.4739 83.295 80.4663 84.8255C76.447 87.8897 70.7574 90.6983 64.6021 92.6818C58.4446 94.666 51.7498 95.8477 45.7068 95.6027C39.6811 95.3584 34.1561 93.6862 30.5406 89.7994C30.1644 89.395 30.1873 88.7623 30.5917 88.3861C30.9961 88.01 31.6288 88.0328 32.005 88.4372C35.1131 91.7784 40.0219 93.3705 45.7878 93.6043C51.5365 93.8374 57.9912 92.7109 63.9887 90.7782C69.9884 88.8448 75.4593 86.1277 79.2537 83.235C81.1529 81.7871 82.5902 80.3268 83.4745 78.9375C84.3577 77.5499 84.6396 76.3178 84.4074 75.2519C84.2451 74.5196 83.6023 73.819 82.7103 73.4446C81.8216 73.0716 80.9189 73.1173 80.306 73.5532C77.9102 75.2613 74.2739 77.2129 70.6 78.767C66.9493 80.3112 63.1211 81.5234 60.3665 81.6516L60.3641 81.6517C60.2081 81.6586 60.0361 81.6676 59.8523 81.6772C59.2463 81.7087 58.5113 81.747 57.7944 81.7398C56.8742 81.7304 55.8295 81.6488 54.9866 81.3103C54.474 81.1045 54.2254 80.5222 54.4312 80.0097C54.637 79.4971 55.2193 79.2485 55.7319 79.4543C56.2097 79.6462 56.9382 79.731 57.8146 79.7399C58.4629 79.7464 59.1071 79.713 59.7031 79.682C59.8994 79.6718 60.0904 79.6619 60.2746 79.6537C62.6576 79.5425 66.2129 78.4512 69.8208 76.925C73.4056 75.4087 76.9033 73.523 79.1459 71.9241L79.1468 71.9234C80.4787 70.9761 82.1553 71.0426 83.4843 71.6004Z" fill="#A66C16"/>
<path d="M45.4376 76.2629L54.9536 80.1421C55.8439 80.5102 56.8385 80.5377 57.7477 80.2192C58.657 79.9008 59.4171 79.2588 59.8832 78.4157C60.1204 77.9636 60.2598 77.4668 60.2925 76.9573C60.3251 76.4479 60.2503 75.9373 60.0727 75.4587C59.8952 74.9801 59.619 74.5441 59.2621 74.1792C58.9051 73.8143 58.4754 73.5285 58.0008 73.3405C58.0008 73.3405 50.7208 70.2933 50.1384 69.9709C39.7384 64.6565 22.516 72.4149 18.5224 80.4333" fill="#F4C5A8"/>
<path fill-rule="evenodd" clip-rule="evenodd" d="M31.5785 69.2655C37.8089 66.941 45.0377 66.2416 50.5934 69.0805C50.6033 69.0856 50.6131 69.0907 50.6227 69.0961C50.6209 69.0951 50.6295 69.0998 50.6546 69.1122C50.6778 69.1236 50.7085 69.1384 50.7474 69.1567C50.8254 69.1932 50.9276 69.2399 51.0524 69.2958C51.3016 69.4074 51.6293 69.551 52.01 69.7159C52.7708 70.0453 53.7325 70.4552 54.6782 70.856C55.6234 71.2565 56.5506 71.6471 57.2417 71.9376C57.5872 72.0828 57.8736 72.203 58.0736 72.2868L58.3787 72.4147C58.9799 72.6544 59.5243 73.0173 59.9769 73.4801C60.432 73.9453 60.784 74.5009 61.0103 75.1111C61.2366 75.7212 61.3321 76.372 61.2904 77.0214C61.2488 77.6708 61.0711 78.3042 60.7687 78.8804L59.8832 78.4158L60.7584 78.8996C60.1734 79.9578 59.2194 80.7635 58.0783 81.1632C56.938 81.5625 55.6907 81.5284 54.574 81.0674C54.5732 81.067 54.5723 81.0667 54.5715 81.0663L45.0601 77.189C44.5487 76.9805 44.3031 76.3969 44.5116 75.8855C44.7201 75.3741 45.3037 75.1285 45.8151 75.337L55.3357 79.2181C55.9989 79.4923 56.7399 79.5128 57.4172 79.2756C58.0911 79.0396 58.6551 78.5649 59.0027 77.9415C59.1717 77.6163 59.2711 77.2593 59.2945 76.8935C59.3182 76.524 59.2639 76.1537 59.1352 75.8066C59.0064 75.4594 58.8061 75.1433 58.5472 74.8786C58.2883 74.6139 57.9766 74.4067 57.6324 74.2703L57.6147 74.263L57.3001 74.1312C57.0997 74.0472 56.8128 73.9268 56.4667 73.7813C55.7746 73.4904 54.8454 73.099 53.8978 72.6974C52.9507 72.2961 51.9832 71.8837 51.2152 71.5512C50.5032 71.2428 49.8919 70.9733 49.6731 70.8563C44.8298 68.3868 38.2525 68.9102 32.2776 71.1393C26.2848 73.3751 21.2531 77.1937 19.4175 80.8792C19.1713 81.3736 18.5709 81.5747 18.0766 81.3285C17.5822 81.0823 17.3811 80.4819 17.6273 79.9876C19.7853 75.6547 25.3616 71.5849 31.5785 69.2655Z" fill="#A66C16"/>
<path d="M81.484 82.6698C85.4776 79.5498 83.1168 74.8282 78.364 77.9586C72.4048 81.9002 69.368 84.2714 58.9264 85.8106" fill="#F4C5A8"/>
<path fill-rule="evenodd" clip-rule="evenodd" d="M84.0599 77.4728C85.0905 79.2465 84.3055 81.7216 82.0935 83.4498C81.6626 83.7864 81.0404 83.71 80.7038 83.2791C80.3672 82.8482 80.4436 82.2261 80.8745 81.8895C82.6561 80.4976 82.6875 79.0519 82.3479 78.4675C82.1837 78.1849 81.8787 77.9555 81.357 77.9233C80.8088 77.8893 79.9812 78.0788 78.9092 78.7848C78.5491 79.0229 78.1983 79.2564 77.8546 79.4851C75.3845 81.1288 73.28 82.5293 70.736 83.6865C67.8177 85.014 64.3521 86.0113 59.0708 86.7898C58.5298 86.8696 58.0267 86.4957 57.947 85.9548C57.8672 85.4139 58.2411 84.9107 58.782 84.831C63.9423 84.0703 67.2159 83.1125 69.9162 81.8842C72.306 80.7971 74.2712 79.4901 76.7551 77.8381C77.0986 77.6097 77.452 77.3747 77.8178 77.1327L77.8194 77.1316C79.1235 76.2727 80.3731 75.8786 81.4793 75.947C82.6122 76.0171 83.539 76.5763 84.0599 77.4728Z" fill="#A66C16"/>
<path d="M51.272 61.4433C65.6487 61.4433 77.3032 49.7887 77.3032 35.4121C77.3032 21.0354 65.6487 9.38086 51.272 9.38086C36.8954 9.38086 25.2408 21.0354 25.2408 35.4121C25.2408 49.7887 36.8954 61.4433 51.272 61.4433Z" fill="#FCD97F"/>
<path fill-rule="evenodd" clip-rule="evenodd" d="M51.272 10.3809C37.4477 10.3809 26.2408 21.5877 26.2408 35.4121C26.2408 49.2364 37.4477 60.4433 51.272 60.4433C65.0964 60.4433 76.3032 49.2364 76.3032 35.4121C76.3032 21.5877 65.0964 10.3809 51.272 10.3809ZM24.2408 35.4121C24.2408 20.4831 36.3431 8.38086 51.272 8.38086C66.2009 8.38086 78.3032 20.4831 78.3032 35.4121C78.3032 50.341 66.2009 62.4433 51.272 62.4433C36.3431 62.4433 24.2408 50.341 24.2408 35.4121Z" fill="#B9802B"/>
<path fill-rule="evenodd" clip-rule="evenodd" d="M41.1344 23.6605C41.1344 23.053 41.6269 22.5605 42.2344 22.5605H60.32C60.9275 22.5605 61.42 23.053 61.42 23.6605C61.42 24.2681 60.9275 24.7605 60.32 24.7605H52.684V25.5297C52.6873 26.7632 52.5227 27.9855 52.1989 29.1641H56.992C57.5995 29.1641 58.092 29.6565 58.092 30.2641C58.092 30.8716 57.5995 31.3641 56.992 31.3641H51.3843C51.1976 31.7595 50.9915 32.1467 50.7662 32.5242C49.5542 34.5558 47.8334 36.234 45.7759 37.3946C47.8643 38.5554 49.6532 40.1903 50.9975 42.1694C52.4043 44.2404 53.2811 46.6251 53.5512 49.1141C53.6167 49.7181 53.1802 50.2608 52.5762 50.3263C51.9723 50.3919 51.4295 49.9554 51.364 49.3514C51.1328 47.2204 50.3821 45.1787 49.1777 43.4055C47.9732 41.6324 46.352 40.182 44.4562 39.1816L44.4467 39.1766L44.4467 39.1765L43.1813 38.4928C42.9887 38.3969 42.8241 38.2521 42.7042 38.0723C42.569 37.8695 42.4968 37.6311 42.4968 37.3871C42.4968 37.1433 42.569 36.9049 42.7042 36.702C42.8257 36.5199 42.993 36.3737 43.1887 36.2779L44.4842 35.5944C46.3018 34.6192 47.8201 33.1684 48.8769 31.3971C48.8835 31.3861 48.89 31.3751 48.8965 31.3641H45.5624C44.9549 31.3641 44.4624 30.8716 44.4624 30.2641C44.4624 29.6565 44.9549 29.1641 45.5624 29.1641H49.9004C50.2887 27.9988 50.4875 26.7733 50.484 25.5343L50.484 25.5311V24.7605H42.2344C41.6269 24.7605 41.1344 24.2681 41.1344 23.6605Z" fill="#A66C16"/>
</svg>
