<svg width="142" height="48" viewBox="0 0 142 48" fill="none" xmlns="http://www.w3.org/2000/svg">
<g clip-path="url(#clip0)">
<path d="M102.358 15.7053C102.358 16.3117 102.358 16.8715 102.358 17.4313C102.404 17.4313 102.451 17.4313 102.451 17.3847C103.236 16.3117 104.299 15.7053 105.547 15.3787C106.887 15.0055 108.181 15.0988 109.475 15.5653C110.445 15.8919 111.185 16.545 111.739 17.3847C111.785 17.478 111.878 17.5713 111.97 17.7579C112.016 17.6646 112.063 17.5713 112.109 17.5246C113.033 16.3117 114.234 15.5187 115.713 15.2854C117.192 15.0055 118.671 15.1455 120.011 15.8452C121.721 16.6849 122.691 18.0844 122.968 19.9971C123.061 20.4636 123.061 20.9767 123.061 21.4432C123.061 24.8953 123.061 28.3474 123.061 31.8462C123.061 31.9861 123.061 32.1261 123.061 32.266C121.443 32.266 119.826 32.266 118.209 32.266C118.209 32.0794 118.209 31.9395 118.209 31.7529C118.209 28.7673 118.209 25.8283 118.209 22.8427C118.209 22.4695 118.162 22.143 118.116 21.7698C117.885 20.7435 117.238 20.0437 116.175 19.8571C115.205 19.7172 114.281 19.8571 113.588 20.6968C113.125 21.2566 112.894 21.9097 112.894 22.6561C112.894 23.9623 112.894 25.2685 112.894 26.5747C112.894 28.3008 112.894 30.0735 112.894 31.7995C112.894 31.9395 112.894 32.0794 112.894 32.2194C111.231 32.2194 109.613 32.2194 107.95 32.2194C107.95 32.0794 107.95 31.9395 107.95 31.7529C107.95 28.7673 107.95 25.7817 107.95 22.7961C107.95 22.3296 107.903 21.8631 107.765 21.4432C107.349 20.3703 106.61 19.9038 105.639 19.8105C105.269 19.7638 104.854 19.8105 104.484 19.9038C103.467 20.2303 102.913 20.9767 102.682 22.003C102.635 22.2363 102.635 22.5162 102.635 22.7961C102.635 25.7817 102.635 28.7673 102.635 31.7529C102.635 31.8928 102.635 32.0328 102.635 32.2194C100.972 32.2194 99.3081 32.2194 97.6445 32.2194C97.6445 26.7147 97.6445 21.21 97.6445 15.7053C99.1233 15.7053 100.741 15.7053 102.358 15.7053Z" fill="black"/>
<path d="M136.878 17.2443C136.878 16.7312 136.878 16.218 136.878 15.7049C138.495 15.7049 140.066 15.7049 141.684 15.7049C141.684 15.7982 141.684 15.9381 141.684 16.0314C141.684 20.9763 141.684 25.9212 141.684 30.8195C141.684 32.6855 141.222 34.4116 140.298 36.0443C139.327 37.7237 137.941 38.7967 136.138 39.3098C134.013 39.9163 131.841 39.9163 129.715 39.2632C128.051 38.75 126.711 37.7237 125.695 36.2776C125.279 35.6711 124.955 34.9714 124.817 34.2716C124.817 34.1783 124.77 34.1317 124.77 34.0384C124.77 33.9917 124.77 33.8984 124.724 33.8051C126.203 33.3853 127.636 32.9654 129.114 32.5456C129.161 32.6389 129.207 32.7788 129.207 32.8721C129.623 34.225 130.824 35.2979 132.488 35.3446C133.089 35.3446 133.689 35.2979 134.244 35.1113C135.492 34.6448 136.231 33.6652 136.554 32.4056C136.739 31.6126 136.785 30.7729 136.739 29.9332L136.693 29.8865H136.647C135.954 30.7728 135.029 31.2394 133.92 31.426C132.488 31.6592 131.055 31.6592 129.715 31.0994C127.312 30.1664 125.741 28.4404 125.048 26.0146C124.401 23.7754 124.539 21.5828 125.648 19.5302C126.573 17.7575 127.959 16.4046 129.9 15.7515C131.379 15.285 132.857 15.2384 134.336 15.6116C135.353 15.8448 136.185 16.4046 136.878 17.2443ZM129.761 23.4488C129.761 23.6354 129.761 23.7753 129.761 23.9619C129.9 25.3148 130.593 26.3411 131.841 26.8542C132.349 27.0875 132.95 27.1341 133.504 27.0875C135.076 26.9942 136.185 26.0612 136.554 24.755C136.739 24.1952 136.785 23.5888 136.739 22.9823C136.554 20.7431 134.475 19.2036 132.118 19.95C130.639 20.4632 129.761 21.7694 129.761 23.4488Z" fill="black"/>
<path d="M97.5518 13.4189C97.5518 11.6928 97.5518 9.96677 97.5518 8.24072C112.247 8.24072 126.942 8.24072 141.638 8.24072C141.73 8.47397 141.73 12.7191 141.684 13.3722C141.407 13.4655 98.3374 13.5122 97.5518 13.4189Z" fill="black"/>
<path d="M90.25 39.6357C90.25 37.9096 90.25 36.1836 90.25 34.4575C101.202 34.4575 112.108 34.4575 123.06 34.4575C123.06 36.1836 123.06 37.9096 123.06 39.6357C112.154 39.6357 101.202 39.6357 90.25 39.6357Z" fill="black"/>
<path d="M95.3801 32.2186C93.6702 32.2186 91.9604 32.2186 90.2044 32.2186C90.2044 31.4255 90.2044 30.6791 90.2044 29.8861C90.2044 29.093 90.2044 28.3466 90.2044 27.5536C90.2044 26.7605 90.2044 26.0141 90.2044 25.2211C90.2044 24.428 90.2044 23.6816 90.2044 22.8886C90.2044 22.0955 90.2044 21.3491 90.2044 20.5561C90.2044 19.763 90.2044 19.0166 90.2044 18.2236C90.2044 17.4305 90.2044 16.6841 90.2044 15.8444C88.4945 15.8444 86.8309 15.8444 85.1211 15.8444C85.1211 14.6782 85.1211 13.5119 85.1211 12.299C85.2597 12.299 85.3984 12.299 85.537 12.299C87.0158 12.2057 88.3097 11.7859 89.465 10.8062C90.2044 10.1998 90.6665 9.40671 90.8975 8.47371C90.8975 8.42706 90.9438 8.33376 90.9438 8.28711C92.4225 8.28711 93.9013 8.28711 95.3801 8.28711C95.3801 16.2176 95.3801 24.1948 95.3801 32.2186Z" fill="black"/>
<path d="M40.1572 33.8524C39.8337 33.8524 39.5102 33.8524 39.233 33.8524C37.1534 33.8524 35.0277 33.8524 32.9482 33.8524C32.6247 33.8524 32.4861 33.7591 32.3936 33.4792C31.1459 29.8405 29.8982 26.2484 28.6967 22.6097C28.6505 22.4698 28.6043 22.3298 28.5119 22.0966C28.3732 22.5164 28.2346 22.7963 28.1422 23.1229C26.9869 26.5283 25.8316 29.9804 24.6763 33.3859C24.5839 33.7124 24.4453 33.8057 24.1218 33.8057C21.9036 33.8057 19.6393 33.8057 17.4211 33.8057C17.2825 33.8057 17.1438 33.8057 16.959 33.8057C17.19 33.2459 17.3749 32.6861 17.5597 32.1263C19.7779 26.2484 21.996 20.3705 24.168 14.5393C24.3066 14.2127 24.4453 14.0728 24.815 14.0728C27.2642 14.0728 29.6672 14.0728 32.1164 14.0728C32.4399 14.0728 32.5785 14.1661 32.7171 14.4926C35.1201 20.7904 37.5693 27.1348 40.0186 33.4325C40.111 33.5725 40.111 33.7124 40.1572 33.8524Z" fill="black"/>
<path d="M78.6054 33.8524C78.4206 33.8524 78.282 33.8524 78.1433 33.8524C75.879 33.8524 73.6146 33.8524 71.3502 33.8524C71.0267 33.8524 70.8881 33.7591 70.7957 33.4792C69.548 29.8405 68.3003 26.2484 67.0988 22.6097C67.0525 22.4698 67.0063 22.3298 66.9139 22.0966C66.8215 22.3298 66.7753 22.5164 66.7291 22.6564C65.5276 26.2484 64.2799 29.7938 63.0784 33.3859C62.9859 33.7124 62.8473 33.8524 62.4776 33.8524C60.2594 33.8524 58.0875 33.8524 55.8693 33.8524C55.7307 33.8524 55.5921 33.8524 55.4072 33.8524C55.4534 33.6658 55.4997 33.5258 55.5459 33.3859C57.9027 27.0881 60.3057 20.7904 62.6624 14.4926C62.8011 14.1661 62.9397 14.0728 63.3094 14.0728C65.7586 14.0728 68.2078 14.0728 70.657 14.0728C70.9343 14.0728 71.073 14.1661 71.2116 14.446C73.6608 20.7904 76.11 27.1814 78.5592 33.5258C78.5592 33.6191 78.5592 33.7124 78.6054 33.8524Z" fill="black"/>
<path d="M57.3494 14.1655C57.3494 16.0782 57.3494 17.9908 57.3494 19.9501C55.5472 19.9501 53.7911 19.9501 51.9427 19.9501C51.9427 24.6151 51.9427 29.2335 51.9427 33.8985C49.3086 33.8985 46.7208 33.8985 44.0867 33.8985C44.0867 29.2801 44.0867 24.6618 44.0867 19.9968C42.192 19.9968 40.3436 19.9968 38.4951 19.9968C38.4951 18.0375 38.4951 16.1248 38.4951 14.2122C44.7337 14.1655 51.0185 14.1655 57.3494 14.1655Z" fill="black"/>
<path d="M0 14.1646C6.28478 14.1646 12.5695 14.1646 18.9005 14.1646C18.9005 16.0772 18.9005 17.9899 18.9005 19.9492C17.0983 19.9492 15.3422 19.9492 13.4938 19.9492C13.4938 24.6142 13.4938 29.2325 13.4938 33.8975C10.8597 33.8975 8.22566 33.8975 5.5916 33.8975C5.5916 29.2792 5.5916 24.6608 5.5916 19.9958C3.69693 19.9958 1.89467 19.9958 0 19.9958C0 17.9899 0 16.0772 0 14.1646Z" fill="black"/>
</g>
<defs>
<clipPath id="clip0">
<rect width="141.714" height="48" fill="white"/>
</clipPath>
</defs>
</svg>
