<?xml version="1.0" encoding="UTF-8"?><svg xmlns="http://www.w3.org/2000/svg" viewBox="0 0 809.38 178.25"><defs><style>.d{fill:#fff;}</style></defs><g id="a"/><g id="b"><g id="c"><g><g><path class="d" d="M584.54,42.13v9.65c.28-.12,.44-.13,.5-.22,4.36-6.17,10.63-9.39,17.69-11.29,7.61-2.05,15.15-1.55,22.52,1.05,5.47,1.93,9.75,5.45,12.8,10.41,.33,.53,.66,1.06,1.31,2.1,.33-.59,.52-1.04,.8-1.41,5.22-6.9,12.06-11.23,20.6-12.7,8.49-1.46,16.76-.74,24.59,3.12,9.8,4.83,15.39,12.77,17,23.51,.4,2.69,.61,5.44,.61,8.17,.05,19.58,.03,39.15,.03,58.73,0,.76,0,1.52,0,2.42h-27.71v-2.79c0-16.77,.02-33.54-.03-50.31,0-2.02-.15-4.09-.62-6.04-1.4-5.94-4.93-9.83-11.18-10.73-5.63-.81-10.78,.11-14.74,4.64-2.75,3.14-4.01,6.86-4.02,11.01-.02,7.37,0,14.73,0,22.1,0,9.89,0,19.79,0,29.68v2.43h-28.31v-2.53c0-16.91,0-33.82,0-50.73,0-2.61-.21-5.19-1.14-7.65-2.33-6.17-6.67-8.65-12.17-9.15-2.24-.2-4.49-.12-6.66,.57-5.79,1.84-8.95,6.01-10.22,11.76-.31,1.42-.38,2.92-.39,4.39-.03,16.91-.02,33.82-.02,50.73v2.62h-28.62V42.13h27.37Z"/><path class="d" d="M781.84,50.81v-8.67h27.35c.04,.63,.12,1.24,.12,1.85,0,27.92,.13,55.85-.06,83.77-.07,10.43-2.52,20.42-7.84,29.55-5.46,9.38-13.51,15.5-23.87,18.37-12.2,3.38-24.51,3.54-36.68-.25-9.54-2.96-17.21-8.66-23.04-16.79-2.48-3.46-4.14-7.3-5.12-11.44-.1-.41-.17-.82-.23-1.24-.05-.34-.08-.68-.15-1.3,8.33-2.37,16.64-4.73,25.09-7.13,.24,.65,.49,1.2,.66,1.78,2.28,7.66,9.12,13.6,18.79,13.86,3.4,.09,6.73-.27,9.93-1.43,7.23-2.62,11.22-8.08,13.08-15.31,1.18-4.6,1.2-9.3,1.07-14,0-.11-.14-.22-.22-.32-.12,.04-.3,.04-.36,.12-3.92,5.14-9.34,7.77-15.53,8.8-8.12,1.36-16.24,1.23-24.04-1.72-13.65-5.16-22.59-14.95-26.57-28.89-3.59-12.58-2.82-25.05,3.39-36.77,5.38-10.15,13.27-17.69,24.4-21.31,8.33-2.71,16.82-2.87,25.28-.71,5.72,1.46,10.49,4.56,14.57,9.18Zm-40.73,35.25c0,.98-.09,1.97,.01,2.94,.86,7.74,4.67,13.37,11.94,16.42,3.01,1.26,6.22,1.62,9.47,1.43,9.01-.54,15.22-5.86,17.54-13.31,1.01-3.25,1.26-6.59,.95-9.97-1.16-12.61-13.02-21.3-26.43-17.14-8.46,2.62-13.55,10.2-13.49,19.63Z"/><path class="d" d="M557.13,29.33V.07h251.86c.4,1.44,.55,25.32,.17,29.07-1.51,.46-247.51,.68-252.04,.2Z"/><path class="d" d="M515.43,177.5v-29.26h187.41v29.26h-187.41Z"/><path class="d" d="M544.73,135.71h-29.6c-.12-4.41-.04-8.79-.05-13.17-.01-4.42,0-8.84,0-13.26V42.8h-29.04V22.87c.82-.04,1.63-.07,2.45-.11,8.36-.45,15.91-3.01,22.33-8.54,4.1-3.53,6.98-7.82,8.23-13.13,.08-.34,.21-.67,.34-1.08h25.35V135.71Z"/></g><g><path class="d" d="M229.46,145c-1.93,0-3.58,0-5.23,0-12,0-23.99-.04-35.99,.04-1.77,.01-2.56-.48-3.16-2.22-7.02-20.48-14.14-40.93-21.24-61.39-.26-.75-.55-1.49-1.04-2.83-.82,2.3-1.46,4.05-2.06,5.82-6.63,19.39-13.29,38.77-19.85,58.18-.6,1.77-1.3,2.46-3.24,2.44-12.75-.09-25.49-.05-38.24-.05-.74,0-1.48-.06-2.53-.11,1.22-3.28,2.35-6.38,3.52-9.46,12.61-33.2,25.25-66.39,37.8-99.61,.72-1.92,1.57-2.65,3.7-2.63,13.91,.11,27.83,.1,41.74,0,1.86-.01,2.77,.49,3.46,2.26,13.84,35.75,27.74,71.48,41.63,107.21,.26,.67,.44,1.37,.74,2.33Z"/><path class="d" d="M448.99,145h-2.53c-12.91,0-25.83-.03-38.74,.04-1.77,.01-2.56-.49-3.15-2.23-7.01-20.49-14.13-40.94-21.21-61.4-.27-.77-.56-1.54-1.03-2.81-.5,1.35-.85,2.25-1.16,3.17-6.93,20.25-13.88,40.5-20.73,60.78-.63,1.86-1.41,2.53-3.47,2.52-12.58-.11-25.16-.06-37.74-.06h-2.75c.32-1.03,.51-1.81,.79-2.55,13.52-35.61,27.06-71.21,40.52-106.84,.71-1.89,1.64-2.42,3.6-2.41,14,.09,27.99,.08,41.99,.01,1.65,0,2.48,.41,3.11,2.03,13.94,35.98,27.94,71.94,41.92,107.9,.18,.46,.3,.93,.6,1.86Z"/><path class="d" d="M327.43,33.41v32.6h-30.93v78.85h-44.99V66.12h-32.05V33.41h107.97Z"/><path class="d" d="M0,33.39H107.83v32.63h-30.81v78.79H31.88V66.14H0V33.39Z"/></g></g></g></g></svg>